<svg width="953" height="813" viewBox="0 0 953 813" fill="none" xmlns="http://www.w3.org/2000/svg">
<rect width="953" height="813" fill="#2A9F00"/>
<path fill-rule="evenodd" clip-rule="evenodd" d="M242.567 656.638C240.158 676.723 230.524 683.609 218.002 683.609C202.911 683.609 192.153 667.987 192.153 638.657C192.153 609.33 202.751 593.551 218.002 593.551C228.92 593.551 237.59 601.679 240.961 616.662H256.212C252.681 593.868 237.75 580.32 218.002 580.32C192.955 580.32 176.74 601.201 176.74 638.657C176.74 675.959 192.955 696.999 218.002 696.999C239.676 696.999 255.089 684.693 257.978 656.638H242.567Z" fill="white"/>
<path fill-rule="evenodd" clip-rule="evenodd" d="M357.75 596.897C372.681 596.897 380.227 601.04 380.227 615.226C380.227 630.052 372.199 633.716 356.786 633.716H339.608V596.897H357.75ZM324.677 693.97H339.608V647.267H354.86C373.163 647.267 377.658 648.383 378.622 664.641L379.424 678.988C379.906 686.477 380.709 691.42 382.313 693.97H399.17V690.941C395.64 688.868 394.675 685.043 394.193 678.189L393.071 660.337C392.267 649.02 390.663 642.963 380.869 639.934C390.663 635.47 395.64 627.023 395.64 614.909C395.64 594.506 384.079 583.349 361.925 583.349H353.415H324.677V693.97Z" fill="white"/>
<path fill-rule="evenodd" clip-rule="evenodd" d="M476.812 652.844C474.404 672.929 464.772 683.608 452.249 683.608C437.158 683.608 426.398 667.986 426.398 638.658C426.398 609.33 436.996 593.549 452.249 593.549C463.166 593.549 471.835 601.678 475.208 616.663H490.459C486.926 593.867 471.995 580.319 452.249 580.319C427.203 580.319 410.987 601.2 410.987 638.658C410.987 675.958 427.203 696.998 452.249 696.998C473.924 696.998 489.335 680.897 492.225 652.844H476.812Z" fill="white"/>
<path fill-rule="evenodd" clip-rule="evenodd" d="M507.163 651.889C507.163 682.333 519.366 697 545.535 697C571.706 697 583.906 682.492 583.906 651.889V583.348H568.975V652.686C568.975 673.247 561.43 683.608 545.535 683.608C529.319 683.608 521.934 673.408 521.934 652.686V583.348H507.163V651.889Z" fill="white"/>
<path fill-rule="evenodd" clip-rule="evenodd" d="M614.518 680.58H602.873V693.97H640.934V680.58H629.289V596.736H640.934V583.348H602.873V596.736H614.518V680.58Z" fill="white"/>
<path fill-rule="evenodd" clip-rule="evenodd" d="M674.727 693.97H689.496V596.737H715.255V583.349H648.811V596.737H674.727V693.97Z" fill="white"/>
<path fill-rule="evenodd" clip-rule="evenodd" d="M729.441 657.468H714.83C715.955 682.812 730.403 696.998 755.128 696.998C779.693 696.998 794.784 683.129 794.784 661.931C794.784 640.732 782.102 635.789 760.105 630.688C740.679 626.226 733.294 624.154 733.294 611.082C733.294 600.562 741.322 593.55 754.164 593.55C767.651 593.55 776 601.518 777.125 616.343H791.736V616.026C791.736 593.389 777.767 580.478 753.684 580.478C732.652 580.478 718.203 593.709 718.203 613.315C718.203 632.442 729.761 637.542 749.187 642.962C768.935 648.541 780.015 649.339 780.015 663.525C780.015 675.958 770.059 683.608 755.77 683.608C739.877 683.608 729.441 673.726 729.441 657.468Z" fill="white"/>
<path fill-rule="evenodd" clip-rule="evenodd" d="M278.84 680.58H267.195V693.97H305.256V680.58H293.611V596.736H305.256V583.348H267.195V596.736H278.84V680.58Z" fill="white"/>
<path fill-rule="evenodd" clip-rule="evenodd" d="M318.086 117.279H261.461C245.774 117.279 233.147 129.815 233.147 145.389V360.385C233.147 375.96 245.774 388.495 261.461 388.495H318.086V360.385H261.461V266.942H303.93V238.832H261.461V145.389H318.086V117.279Z" fill="white"/>
<path fill-rule="evenodd" clip-rule="evenodd" d="M455.888 117.279H427.574V360.385H399.263V117.279H370.949V348.61C370.949 371.782 390.08 390.774 413.42 390.774C436.757 390.774 455.888 371.782 455.888 348.61V117.279Z" fill="white"/>
<path fill-rule="evenodd" clip-rule="evenodd" d="M537.064 145.388H565.377V238.833H537.064V145.388ZM508.75 388.495H537.064V266.942H565.375V368.364C565.375 375.201 568.437 382.797 571.497 388.495H600.575C596.749 381.658 593.689 375.959 593.689 368.364V277.957C593.689 261.244 587.952 255.547 581.062 252.887C587.952 249.089 593.689 244.15 593.689 231.235V145.388C593.689 129.814 581.062 117.278 565.375 117.278H508.75V388.495Z" fill="white"/>
<path fill-rule="evenodd" clip-rule="evenodd" d="M710.065 360.387H681.753V145.388H710.065V360.387ZM653.439 348.611C653.439 371.781 672.57 390.775 695.909 390.775C719.247 390.775 738.378 371.781 738.378 348.611V157.164C738.378 133.993 719.247 115 695.909 115C672.57 115 653.439 133.993 653.439 157.164V348.611Z" fill="white"/>
<path d="M170.074 425.13H848V431.823H170.074V433.259C170.074 437.231 165.649 440.453 160.192 440.453H115.881C110.424 440.453 106 437.231 106 433.259V423.706C106 419.731 110.424 416.509 115.881 416.509H160.192C165.649 416.509 170.074 419.731 170.074 423.706V425.13Z" fill="white"/>
<path d="M170.074 464.87H848V471.563H170.074V472.999C170.074 476.971 165.649 480.194 160.192 480.194H115.881C110.424 480.194 106 476.971 106 472.999V463.446C106 459.471 110.424 456.249 115.881 456.249H160.192C165.649 456.249 170.074 459.471 170.074 463.446V464.87Z" fill="white"/>
<path d="M170.074 504.61H848V511.303H170.074V512.739C170.074 516.712 165.649 519.934 160.192 519.934H115.881C110.424 519.934 106 516.712 106 512.739V503.186C106 499.211 110.424 495.989 115.881 495.989H160.192C165.649 495.989 170.074 499.211 170.074 503.186V504.61Z" fill="white"/>
<path d="M170.074 544.35H848V551.043H170.074V552.477C170.074 556.452 165.649 559.674 160.192 559.674H115.881C110.424 559.674 106 556.452 106 552.477V542.926C106 538.952 110.424 535.73 115.881 535.73H160.192C165.649 535.73 170.074 538.952 170.074 542.926V544.35Z" fill="white"/>
</svg>
