<?xml version="1.0" encoding="UTF-8" standalone="no"?>
<svg
   version="1.1"
   id="Layer_1"
   x="0px"
   y="0px"
   width="207.2px"
   height="24px"
   viewBox="0 0 207.2 24"
   style="enable-background:new 0 0 207.2 24;"
   sodipodi:docname="marshall.svg"
   inkscape:version="1.3 (0e150ed6c4, 2023-07-21)"
   xmlns:inkscape="http://www.inkscape.org/namespaces/inkscape"
   xmlns:sodipodi="http://sodipodi.sourceforge.net/DTD/sodipodi-0.dtd"
   xmlns="http://www.w3.org/2000/svg"
   xmlns:svg="http://www.w3.org/2000/svg">
  <defs
     id="defs10" />
  <sodipodi:namedview
     id="namedview10"
     pagecolor="#ffffff"
     bordercolor="#000000"
     borderopacity="0.25"
     inkscape:showpageshadow="2"
     inkscape:pageopacity="0.0"
     inkscape:pagecheckerboard="0"
     inkscape:deskcolor="#d1d1d1"
     inkscape:zoom="8.4362936"
     inkscape:cx="103.6"
     inkscape:cy="12.03135"
     inkscape:window-width="2560"
     inkscape:window-height="1369"
     inkscape:window-x="1912"
     inkscape:window-y="-8"
     inkscape:window-maximized="1"
     inkscape:current-layer="Layer_1" />
  <style
     type="text/css"
     id="style1">&#10;	.st0{fill:#FFFFFF;}&#10;</style>
  <path
     class="st0"
     d="M53.5,19.6c0.1,1.1,0.3,2.8,1.6,3.2c0.9,0.3,1.6,0.3,1.9,0.3c0.2,0,0.3,0,0.3,0.2c0,0.2-0.1,0.2-0.5,0.2  c-0.7,0-4.1-0.1-5.2-0.2c-0.7-0.1-0.8-0.2-0.8-0.3c0-0.1,0.1-0.2,0.2-0.2c0.2-0.1,0.2-0.5,0.1-1.1L49.6,6l-7.5,15.9  c-0.6,1.3-0.7,1.6-1,1.6c-0.2,0-0.4-0.3-0.9-1.4c-0.8-1.5-3.4-6.7-3.5-7c-0.3-0.5-3.7-8-4.1-8.8l-1.2,14.2c0,0.5-0.1,0.9-0.1,1.4  c0,0.7,0.4,1,0.8,1.1c0.5,0.1,0.9,0.1,1.1,0.1s0.3,0.1,0.3,0.2c0,0.2-0.2,0.3-0.5,0.3c-1.1,0-4.6,0-5.4,0c-0.3,0-0.5,0-0.5-0.2  c0-0.1,0.2-0.2,0.3-0.2c0.2,0,0.5,0,0.9-0.1c1-0.2,1.1-1.3,1.2-2.5l2.2-19.6c0-0.3,0.2-0.6,0.3-0.6c0.2,0,0.3,0.1,0.5,0.5l9.2,19  l8.9-18.9c0.1-0.3,0.2-0.5,0.5-0.5c0.2,0,0.3,0.2,0.4,0.8L53.5,19.6z"
     id="path1"
     style="fill:#003c59;fill-opacity:1" />
  <path
     class="st0"
     d="M67.4,14.6c-0.2,0-0.2,0.1-0.3,0.2l-1.8,5.3c-0.3,0.7-0.4,1.5-0.4,2c0,0.6,0.6,0.9,1.1,0.9c0.1,0,0.2,0,0.3,0  c0.3,0,0.4,0.1,0.4,0.2c0,0.2-0.3,0.2-0.5,0.2c-0.7,0-4.3,0-5.7,0c-0.4,0-0.6-0.1-0.6-0.2c0-0.1,0.2-0.2,0.4-0.2  c0.2,0,0.5,0,0.7-0.1c1.4-0.2,2-1.3,2.5-2.8l6.8-18.7c0.4-1,0.5-1.2,0.7-1.2c0.2,0,0.3,0.2,0.7,1.1c0.5,1.2,5.2,13.6,7,18.2  c1.1,2.7,2,3.2,2.6,3.4c0.5,0.2,0.9,0.2,1.2,0.2c0.2,0,0.3,0,0.3,0.2c0,0.2-0.3,0.2-0.6,0.2c-0.5,0-2.6,0-4.7-0.1  c-0.6,0-0.9,0-0.9-0.2c0-0.1,0.1-0.2,0.2-0.2c0.2-0.1,0.4-0.3,0.2-0.8l-2.8-7.4c-0.1-0.1-0.1-0.2-0.3-0.2L67.4,14.6L67.4,14.6z   M73.5,13.5c0.2,0,0.2-0.1,0.1-0.2l-2.9-8.2c-0.2-0.5-0.3-0.5-0.5,0l-2.6,8.2c-0.1,0.2,0,0.2,0.1,0.2H73.5z"
     id="path2"
     style="fill:#003c59;fill-opacity:1" />
  <path
     class="st0"
     d="M87.5,9.2c0-4.7,0-5.5-0.1-6.5c-0.1-1-0.3-1.5-1.3-1.7c-0.2-0.1-0.7-0.1-1-0.1c-0.1,0-0.2-0.1-0.2-0.2  c0-0.2,0.2-0.2,0.5-0.2c1.4,0,6,0,7,0c1.9,0,3.9,0.2,5.5,1.3c0.7,0.5,2.1,2,2.1,4.1c0,2.2-0.9,4.5-3.6,7c2.5,3.2,4.5,5.9,6.3,7.7  c1.6,1.7,2.9,2.1,3.7,2.2c0.6,0.1,1,0.1,1.2,0.1c0.2,0,0.3,0.1,0.3,0.2c0,0.2-0.2,0.2-0.7,0.2h-2.1c-1.7,0-2.4-0.2-3.2-0.6  c-1.3-0.7-2.4-2.2-4.1-4.4c-1.3-1.6-2.7-3.7-3.3-4.5c-0.1-0.1-0.2-0.2-0.4-0.2l-3.7-0.1c-0.2,0-0.2,0.1-0.2,0.2v0.7  c0,2.9,0,5.3,0.2,6.5c0.1,0.9,0.3,1.5,1.2,1.6c0.4,0.1,1.1,0.1,1.4,0.1c0.2,0,0.2,0.1,0.2,0.2c0,0.2-0.2,0.2-0.5,0.2  c-1.6,0-5.6,0-6.5,0c-0.3,0-0.5-0.1-0.5-0.2c0-0.1,0.1-0.2,0.2-0.2c0.3,0,0.6-0.1,0.9-0.1c0.6-0.1,0.7-0.8,0.9-1.6  c0.2-1.3,0.2-3.6,0.2-6.5L87.5,9.2L87.5,9.2z M89.9,11.9c0,0.2,0.1,0.3,0.2,0.4c0.5,0.3,1.8,0.5,3.2,0.5c0.7,0,1.6-0.1,2.3-0.6  c1.1-0.7,1.8-2.4,1.8-4.6c0-3.8-2-6-5.2-6c-0.9,0-1.7,0.1-2,0.2c-0.2,0.1-0.2,0.2-0.2,0.4L89.9,11.9L89.9,11.9z"
     id="path3"
     style="fill:#003c59;fill-opacity:1" />
  <path
     class="st0"
     d="M110.9,23.1c-0.4-0.2-0.3-3.9-0.3-4.4c0-0.3,0.1-0.5,0.2-0.5c0.2,0,0.2,0.1,0.2,0.3c0,0.3,0,0.7,0.1,1.1  c0.5,2.2,2.4,3.1,4.5,3.1c2.9,0,4.3-2.1,4.3-4c0-2.1-0.9-3.3-3.5-5.4l-1.4-1.1c-3.2-2.6-3.9-4.5-3.9-6.5c0-3.2,2.4-5.4,6.3-5.4  c1.2,0,2.1,0.1,2.8,0.3c0.6,0.1,0.8,0.2,1.1,0.2s0.3,0.1,0.3,0.2s-0.1,1.2-0.1,3.2c0,0.5-0.1,0.7-0.2,0.7c-0.2,0-0.2-0.2-0.2-0.4  c0-0.4-0.2-1.2-0.4-1.5c-0.2-0.3-1-1.6-3.8-1.6c-2.1,0-3.7,1.3-3.7,3.5c0,1.7,0.8,2.8,3.7,5.1l0.8,0.7c3.5,2.8,4.4,4.7,4.4,7.1  c0,1.2-0.5,3.5-2.6,5c-1.3,0.9-2.9,1.3-4.5,1.3C113.5,23.9,112.1,23.7,110.9,23.1z"
     id="path4"
     style="fill:#003c59;fill-opacity:1" />
  <path
     class="st0"
     d="M143.6,9.9c0.1,0,0.2,0,0.2-0.2V9.1c0-4.7,0-5.5-0.1-6.5c-0.1-1-0.3-1.5-1.3-1.7c-0.2-0.1-0.7-0.1-1-0.1  c-0.1,0-0.2-0.1-0.2-0.2c0-0.2,0.2-0.2,0.5-0.2c1.4,0,5.4,0,6.4,0c0.3,0,0.5,0.1,0.5,0.2c0,0.1-0.1,0.2-0.2,0.2  c-0.2,0-0.4,0-0.7,0.1c-0.8,0.2-1.1,0.7-1.1,1.7c-0.1,1-0.1,1.8-0.1,6.5v5.3c0,2.9,0,5.3,0.2,6.5c0.1,0.9,0.6,1.5,1.5,1.6  c0.4,0.1,1.1,0.1,1.4,0.1c0.2,0,0.2,0.1,0.2,0.2c0,0.2-0.2,0.2-0.5,0.2c-1.6,0-5.8,0-6.7,0c-0.3,0-0.5-0.1-0.5-0.2  c0-0.1,0.1-0.2,0.2-0.2c0.3,0,0.6-0.1,0.9-0.1c0.6-0.1,0.4-0.8,0.6-1.6c0.2-1.3,0.2-3.6,0.2-6.5v-3.2c0-0.1-0.1-0.2-0.2-0.2h-12.8  c-0.1,0-0.2,0-0.2,0.2v3.2c0,2.9,0,5.3,0.2,6.5c0.1,0.9,0.6,1.5,1.5,1.6c0.4,0.1,1.1,0.1,1.4,0.1c0.2,0,0.2,0.1,0.2,0.2  c0,0.2-0.2,0.2-0.5,0.2c-1.6,0-5.8,0-6.7,0c-0.3,0-0.5-0.1-0.5-0.2c0-0.1,0.1-0.2,0.2-0.2c0.3,0,0.6-0.1,0.9-0.1  c0.6-0.1,0.7-0.8,0.9-1.6c0.2-1.3,0.2-3.6,0.2-6.5V9.1c0-4.7,0-5.5-0.1-6.5c-0.1-1-0.3-1.5-1.3-1.7c-0.2-0.1-0.7-0.1-1-0.1  c-0.1,0-0.2-0.1-0.2-0.2c0-0.2,0.2-0.2,0.5-0.2c1.4,0,5.1,0,6,0c0.3,0,0.5,0.1,0.5,0.2c0,0.1-0.1,0.2-0.2,0.2c-0.2,0-0.4,0-0.7,0.1  c-0.8,0.2-1.1,0.7-1.1,1.7c-0.1,1-0.1,1.8-0.1,6.5v0.6c0,0.2,0.1,0.2,0.2,0.2H143.6z"
     id="path5"
     style="fill:#003c59;fill-opacity:1" />
  <path
     class="st0"
     d="M159.1,14.4c-0.2,0-0.2,0.1-0.3,0.2l-1.8,5.3c-0.3,0.7-0.1,1.5-0.1,2c0,0.6,0.6,0.9,1.1,0.9c0.1,0,0.2,0,0.3,0  c0.3,0,0.4,0.1,0.4,0.2c0,0.2-0.3,0.2-0.5,0.2c-0.7,0-4.3,0-5.7,0c-0.4,0-0.6-0.1-0.6-0.2c0-0.1,0.2-0.2,0.4-0.2  c0.2,0,0.5,0,0.7-0.1c1.4-0.2,1.7-1.3,2.2-2.8l6.8-18.7c0.4-1,0.5-1.2,0.7-1.2s0.3,0.2,0.7,1.1c0.5,1.2,5.2,13.6,7,18.2  c1.1,2.7,2.3,3.2,2.9,3.4c0.5,0.2,0.9,0.2,1.2,0.2c0.2,0,0.3,0,0.3,0.2c0,0.2-0.3,0.2-0.6,0.2c-0.5,0-2.6,0-4.7-0.1  c-0.6,0-0.9,0-0.9-0.2c0-0.1,0.1-0.2,0.2-0.2c0.2-0.1,0.4-0.3,0.2-0.8l-3.1-7.4c-0.1-0.1-0.1-0.2-0.3-0.2L159.1,14.4L159.1,14.4z   M165.2,13.3c0.2,0,0.2-0.1,0.1-0.2l-2.9-8.2c-0.2-0.5-0.3-0.5-0.5,0l-2.6,8.2c-0.1,0.2,0,0.2,0.1,0.2H165.2z"
     id="path6"
     style="fill:#003c59;fill-opacity:1" />
  <path
     class="st0"
     d="M181.7,14.6c0,4.4,0.1,6.4,0.7,6.9c0.5,0.5,1.6,0.7,3.9,0.7c1.6,0,2.6,0,3.3-0.9c0.4-0.5,0.7-1.2,0.8-1.8  c0-0.2,0.1-0.4,0.3-0.4c0.2,0,0.2,0.1,0.2,0.5c0,0.3,0.1,2.1-0.2,3c-0.2,0.7-0.3,0.8-1.9,0.8c-2.6,0-5.2-0.2-8.1-0.2  c-0.9,0-1.8,0.1-3,0.1c-0.3,0-0.5-0.1-0.5-0.2c0-0.1,0.1-0.2,0.2-0.2c0.3,0,0.6-0.1,0.9-0.1c0.6-0.1,0.4-0.8,0.6-1.6  c0.2-1.3,0.2-3.6,0.2-6.5V9.2c0-4.7,0-5.5-0.1-6.5c-0.1-1-0.3-1.5-1.3-1.7c-0.2-0.1-0.7-0.1-1-0.1c-0.1,0-0.2-0.1-0.2-0.2  c0-0.2,0.2-0.2,0.5-0.2c1.4,0,5.8,0,6.7,0c0.3,0,0.5,0.1,0.5,0.2c0,0.1-0.1,0.2-0.2,0.2c-0.2,0-0.6,0-1,0.1  c-0.9,0.2-1.1,0.7-1.2,1.7c-0.1,1-0.1,1.8-0.1,6.5L181.7,14.6L181.7,14.6z"
     id="path7"
     style="fill:#003c59;fill-opacity:1" />
  <path
     class="st0"
     d="M198.1,14.6c0,4.4,0.1,6.4,0.7,6.9c0.5,0.5,1.6,0.7,3.9,0.7c1.6,0,2.6,0,3.3-0.9c0.4-0.5,0.7-1.2,0.8-1.8  c0-0.2,0.1-0.4,0.3-0.4c0.2,0,0.2,0.1,0.2,0.5c0,0.3,0.1,2.1-0.2,3c-0.2,0.7-0.3,0.8-1.9,0.8c-2.6,0-5.2-0.2-8.1-0.2  c-0.9,0-1.8,0.1-3,0.1c-0.3,0-0.5-0.1-0.5-0.2c0-0.1,0.1-0.2,0.2-0.2c0.3,0,0.6-0.1,0.9-0.1c0.6-0.1,0.4-0.8,0.6-1.6  c0.2-1.3,0.2-3.6,0.2-6.5c0,0,0-10.9-0.1-11.8c-0.1-1-0.3-1.5-1.3-1.7c-0.2-0.1-0.7-0.1-1-0.1c-0.1,0-0.2-0.1-0.2-0.2  c0-0.2,0.2-0.2,0.5-0.2c1.4,0,5.8,0,6.7,0c0.3,0,0.5,0.1,0.5,0.2c0,0.1-0.1,0.2-0.2,0.2c-0.2,0-0.6,0-1,0.1  c-0.9,0.2-1.1,0.7-1.2,1.7c-0.1,1-0.1,1.8-0.1,6.5L198.1,14.6L198.1,14.6z"
     id="path8"
     style="fill:#003c59;fill-opacity:1" />
  <rect
     x="9"
     y="0.1"
     class="st0"
     width="5"
     height="23.4"
     id="rect8"
     style="fill:#003c59;fill-opacity:1" />
  <rect
     x="16"
     y="0.1"
     class="st0"
     width="7"
     height="23.4"
     id="rect9"
     style="fill:#003c59;fill-opacity:1" />
  <rect
     y="0.1"
     class="st0"
     width="7"
     height="23.4"
     id="rect10"
     style="fill:#003c59;fill-opacity:1" />
</svg>
