<?xml version="1.0" encoding="UTF-8" standalone="no"?>
<svg
   height="55.731"
   viewBox="0 0 279.177 55.731"
   width="279.177"
   version="1.1"
   id="svg30"
   sodipodi:docname="group-777.svg"
   inkscape:version="1.3 (0e150ed6c4, 2023-07-21)"
   xmlns:inkscape="http://www.inkscape.org/namespaces/inkscape"
   xmlns:sodipodi="http://sodipodi.sourceforge.net/DTD/sodipodi-0.dtd"
   xmlns="http://www.w3.org/2000/svg"
   xmlns:svg="http://www.w3.org/2000/svg">
  <defs
     id="defs30" />
  <sodipodi:namedview
     id="namedview30"
     pagecolor="#ffffff"
     bordercolor="#000000"
     borderopacity="0.25"
     inkscape:showpageshadow="2"
     inkscape:pageopacity="0.0"
     inkscape:pagecheckerboard="0"
     inkscape:deskcolor="#d1d1d1"
     inkscape:zoom="6.2612607"
     inkscape:cx="139.5885"
     inkscape:cy="27.869787"
     inkscape:window-width="2560"
     inkscape:window-height="1369"
     inkscape:window-x="1912"
     inkscape:window-y="-8"
     inkscape:window-maximized="1"
     inkscape:current-layer="svg30" />
  <clipPath
     id="a">
    <path
       d="m0 0h279.177v55.731h-279.177z"
       id="path1" />
  </clipPath>
  <g
     clip-path="url(#a)"
     fill="#fff"
     id="g30">
    <path
       d="m243.815 0h-208.452s-35.363 0-35.363 26.989c0 0 0 26.988 35.363 26.988h11.167v-4.233c-25.587-2.155-25.592-22.755-25.592-22.755 0-22.939 30.062-22.939 30.062-22.939h177.181c30.057 0 30.057 22.939 30.057 22.939 0 17.364-17.219 21.583-25.59 22.609v4.379h11.167s35.362 0 35.362-26.988c0 0 0-26.987-35.362-26.987"
       transform="translate(0 -.002)"
       id="path2"
       style="fill:#582e90;fill-opacity:1" />
    <path
       d="m220 121.254h-21.953l2.094-4.8 18.021-13.106h-11.806l2.4-5.49h21.216l-2.072 4.742-17.832 13.085h12.364z"
       transform="translate(-160.409 -79.264)"
       id="path3"
       style="fill:#582e90;fill-opacity:1" />
    <path
       d="m220 121.254h-21.953l2.094-4.8 18.021-13.106h-11.806l2.4-5.49h21.216l-2.072 4.742-17.832 13.085h12.364z"
       transform="translate(-160.409 -79.264)"
       id="path4"
       style="fill:#582e90;fill-opacity:1" />
    <path
       d="m355.486 82.787h-7.51l10.215-23.387h7.51zm11.882-26.739h-7.92l2.479-5.678h7.92z"
       transform="translate(-281.845 -40.797)"
       id="path5"
       style="fill:#582e90;fill-opacity:1" />
    <path
       d="m355.486 82.787h-7.51l10.215-23.387h7.51zm11.882-26.739h-7.92l2.479-5.678h7.92z"
       transform="translate(-281.845 -40.797)"
       id="path6"
       style="fill:#582e90;fill-opacity:1" />
    <path
       d="m455.457 104.687h-.666a5.281 5.281 0 0 0 -1.427-.254q-1.023-.084-1.73-.085a18.808 18.808 0 0 0 -2.919.208 21.847 21.847 0 0 0 -2.95.708l-6.842 15.668h-7.51l10.217-23.39h7.51l-1.5 3.435a27.126 27.126 0 0 1 5.534-2.817 12.2 12.2 0 0 1 3.671-.693q.394 0 .884.021t.846.062z"
       transform="translate(-349.427 -78.944)"
       id="path7"
       style="fill:#582e90;fill-opacity:1" />
    <path
       d="m455.457 104.687h-.666a5.281 5.281 0 0 0 -1.427-.254q-1.023-.084-1.73-.085a18.808 18.808 0 0 0 -2.919.208 21.847 21.847 0 0 0 -2.95.708l-6.842 15.668h-7.51l10.217-23.39h7.51l-1.5 3.435a27.126 27.126 0 0 1 5.534-2.817 12.2 12.2 0 0 1 3.671-.693q.394 0 .884.021t.846.062z"
       transform="translate(-349.427 -78.944)"
       id="path8"
       style="fill:#582e90;fill-opacity:1" />
    <path
       d="m570.284 119.167a16.9 16.9 0 0 1 -5.269-.729 7.042 7.042 0 0 1 -3.418-2.251 6.08 6.08 0 0 1 -1.2-3.834 13.756 13.756 0 0 1 1.346-5.417 20.914 20.914 0 0 1 3.558-5.647 19.742 19.742 0 0 1 10.085-6.105 22.588 22.588 0 0 1 5.441-.687 15.039 15.039 0 0 1 4.184.521 13.333 13.333 0 0 1 3.175 1.354l-2.794 6.4h-1.06q-.272-.377-.666-.88a5.1 5.1 0 0 0 -1.077-.985 6.045 6.045 0 0 0 -1.537-.765 7.022 7.022 0 0 0 -2.238-.3 8.623 8.623 0 0 0 -5.44 1.911 13.049 13.049 0 0 0 -3.877 5.189q-1.477 3.383-.59 5.136t3.922 1.754a10.9 10.9 0 0 0 2.688-.323 12.563 12.563 0 0 0 2.214-.762 16 16 0 0 0 1.63-.876q.74-.459 1.389-.9h1.06l-2.789 6.388a30.293 30.293 0 0 1 -4.272 1.321 20.006 20.006 0 0 1 -4.469.489"
       transform="translate(-453.897 -76.538)"
       id="path9"
       style="fill:#582e90;fill-opacity:1" />
    <path
       d="m570.284 119.167a16.9 16.9 0 0 1 -5.269-.729 7.042 7.042 0 0 1 -3.418-2.251 6.08 6.08 0 0 1 -1.2-3.834 13.756 13.756 0 0 1 1.346-5.417 20.914 20.914 0 0 1 3.558-5.647 19.742 19.742 0 0 1 10.085-6.105 22.588 22.588 0 0 1 5.441-.687 15.039 15.039 0 0 1 4.184.521 13.333 13.333 0 0 1 3.175 1.354l-2.794 6.4h-1.06q-.272-.377-.666-.88a5.1 5.1 0 0 0 -1.077-.985 6.045 6.045 0 0 0 -1.537-.765 7.022 7.022 0 0 0 -2.238-.3 8.623 8.623 0 0 0 -5.44 1.911 13.049 13.049 0 0 0 -3.877 5.189q-1.477 3.383-.59 5.136t3.922 1.754a10.9 10.9 0 0 0 2.688-.323 12.563 12.563 0 0 0 2.214-.762 16 16 0 0 0 1.63-.876q.74-.459 1.389-.9h1.06l-2.789 6.388a30.293 30.293 0 0 1 -4.272 1.321 20.006 20.006 0 0 1 -4.465.487z"
       transform="translate(-453.897 -76.538)"
       id="path10"
       style="fill:#582e90;fill-opacity:1" />
    <path
       d="m725.944 106.524a20.928 20.928 0 0 1 -7.322 9.082 18.691 18.691 0 0 1 -10.876 3.318q-6.07 0-7.977-3.318t.609-9.082a20.89 20.89 0 0 1 7.356-9.113 18.738 18.738 0 0 1 10.85-3.308q6.111 0 7.993 3.328t-.634 9.092m-11.687 5.677a11.011 11.011 0 0 0 2.03-2.152 19.027 19.027 0 0 0 1.885-3.483 15.443 15.443 0 0 0 1.133-3.451 4.5 4.5 0 0 0 -.067-2.225 1.96 1.96 0 0 0 -1.074-1.205 4.477 4.477 0 0 0 -1.86-.354 7.071 7.071 0 0 0 -2.049.292 6.884 6.884 0 0 0 -2.117 1.164 10.837 10.837 0 0 0 -2.063 2.224 19.247 19.247 0 0 0 -1.957 3.555 15.638 15.638 0 0 0 -1.1 3.317 4.345 4.345 0 0 0 .054 2.255 2.109 2.109 0 0 0 1.072 1.185 4.4 4.4 0 0 0 1.945.375 6.855 6.855 0 0 0 2.092-.343 6.364 6.364 0 0 0 2.072-1.154"
       transform="translate(-566.115 -76.219)"
       id="path11"
       style="fill:#582e90;fill-opacity:1" />
    <path
       d="m725.944 106.524a20.928 20.928 0 0 1 -7.322 9.082 18.691 18.691 0 0 1 -10.876 3.318q-6.07 0-7.977-3.318t.609-9.082a20.89 20.89 0 0 1 7.356-9.113 18.738 18.738 0 0 1 10.85-3.308q6.111 0 7.993 3.328t-.633 9.093zm-11.688 5.676a11.011 11.011 0 0 0 2.03-2.152 19.027 19.027 0 0 0 1.885-3.483 15.443 15.443 0 0 0 1.133-3.451 4.5 4.5 0 0 0 -.067-2.225 1.96 1.96 0 0 0 -1.074-1.205 4.477 4.477 0 0 0 -1.86-.354 7.071 7.071 0 0 0 -2.049.292 6.884 6.884 0 0 0 -2.117 1.164 10.837 10.837 0 0 0 -2.063 2.224 19.247 19.247 0 0 0 -1.957 3.555 15.638 15.638 0 0 0 -1.1 3.317 4.345 4.345 0 0 0 .054 2.255 2.109 2.109 0 0 0 1.072 1.185 4.4 4.4 0 0 0 1.945.375 6.855 6.855 0 0 0 2.092-.343 6.364 6.364 0 0 0 2.076-1.154z"
       transform="translate(-566.115 -76.219)"
       id="path12"
       style="fill:#582e90;fill-opacity:1" />
    <path
       d="m875.347 92.512a26.978 26.978 0 0 1 -2.77.487 28.056 28.056 0 0 1 -3.382.176q-4.365 0-5.722-1.77t.516-6.061l4.776-10.935h-3.078l2.217-5.077h3.078l2.923-6.694h7.509l-2.923 6.694h6.976l-2.216 5.077h-6.976l-3.627 8.306q-.538 1.231-.918 2.149a4.492 4.492 0 0 0 -.388 1.649 1.315 1.315 0 0 0 .519 1.158 3.292 3.292 0 0 0 1.955.428 7.55 7.55 0 0 0 1.632-.252 9.257 9.257 0 0 0 1.516-.462h.622z"
       transform="translate(-698.913 -50.735)"
       id="path13"
       style="fill:#582e90;fill-opacity:1" />
    <path
       d="m875.347 92.512a26.978 26.978 0 0 1 -2.77.487 28.056 28.056 0 0 1 -3.382.176q-4.365 0-5.722-1.77t.516-6.061l4.776-10.935h-3.078l2.217-5.077h3.078l2.923-6.694h7.509l-2.923 6.694h6.976l-2.216 5.077h-6.976l-3.627 8.306q-.538 1.231-.918 2.149a4.492 4.492 0 0 0 -.388 1.649 1.315 1.315 0 0 0 .519 1.158 3.292 3.292 0 0 0 1.955.428 7.55 7.55 0 0 0 1.632-.252 9.257 9.257 0 0 0 1.516-.462h.622z"
       transform="translate(-698.913 -50.735)"
       id="path14"
       style="fill:#582e90;fill-opacity:1" />
    <path
       d="m994.436 107.9h-17.112q-1.046 2.775.231 4.245t5.012 1.471a15.618 15.618 0 0 0 4.966-.873 23.736 23.736 0 0 0 4.324-1.873h.83l-2.634 6.032a39.32 39.32 0 0 1 -5.427 1.482 28.05 28.05 0 0 1 -5.167.458q-7.025 0-9.383-3.166t.2-9.02a20.865 20.865 0 0 1 7.551-9.175 19.6 19.6 0 0 1 11.2-3.385q5.7 0 7.307 2.884t-.752 8.3zm-5.547-4.4q.959-2.34.377-3.521t-2.9-1.181a7.73 7.73 0 0 0 -4.027 1.118 8.417 8.417 0 0 0 -3.117 3.583z"
       transform="translate(-784.801 -76.218)"
       id="path15"
       style="fill:#582e90;fill-opacity:1" />
    <path
       d="m994.436 107.9h-17.112q-1.046 2.775.231 4.245t5.012 1.471a15.618 15.618 0 0 0 4.966-.873 23.736 23.736 0 0 0 4.324-1.873h.83l-2.634 6.032a39.32 39.32 0 0 1 -5.427 1.482 28.05 28.05 0 0 1 -5.167.458q-7.025 0-9.383-3.166t.2-9.02a20.865 20.865 0 0 1 7.551-9.175 19.6 19.6 0 0 1 11.2-3.385q5.7 0 7.307 2.884t-.752 8.3zm-5.547-4.4q.959-2.34.377-3.521t-2.9-1.181a7.73 7.73 0 0 0 -4.027 1.118 8.417 8.417 0 0 0 -3.117 3.583z"
       transform="translate(-784.801 -76.218)"
       id="path16"
       style="fill:#582e90;fill-opacity:1" />
    <path
       d="m1134.609 119.167a16.9 16.9 0 0 1 -5.269-.729 7.045 7.045 0 0 1 -3.419-2.251 6.083 6.083 0 0 1 -1.2-3.834 13.769 13.769 0 0 1 1.346-5.417 20.94 20.94 0 0 1 3.558-5.647 19.746 19.746 0 0 1 10.086-6.105 22.582 22.582 0 0 1 5.44-.687 15.041 15.041 0 0 1 4.185.521 13.325 13.325 0 0 1 3.175 1.354l-2.793 6.4h-1.061q-.272-.377-.666-.88a5.108 5.108 0 0 0 -1.076-.985 6.061 6.061 0 0 0 -1.537-.765 7.026 7.026 0 0 0 -2.238-.3 8.623 8.623 0 0 0 -5.44 1.911 13.061 13.061 0 0 0 -3.877 5.189q-1.476 3.383-.589 5.136t3.922 1.754a10.9 10.9 0 0 0 2.688-.323 12.591 12.591 0 0 0 2.214-.762 16.026 16.026 0 0 0 1.63-.876q.74-.459 1.389-.9h1.061l-2.789 6.388a30.3 30.3 0 0 1 -4.272 1.321 20 20 0 0 1 -4.469.489"
       transform="translate(-910.974 -76.538)"
       id="path17"
       style="fill:#582e90;fill-opacity:1" />
    <path
       d="m1134.609 119.167a16.9 16.9 0 0 1 -5.269-.729 7.045 7.045 0 0 1 -3.419-2.251 6.083 6.083 0 0 1 -1.2-3.834 13.769 13.769 0 0 1 1.346-5.417 20.94 20.94 0 0 1 3.558-5.647 19.746 19.746 0 0 1 10.086-6.105 22.582 22.582 0 0 1 5.44-.687 15.041 15.041 0 0 1 4.185.521 13.325 13.325 0 0 1 3.175 1.354l-2.793 6.4h-1.061q-.272-.377-.666-.88a5.108 5.108 0 0 0 -1.076-.985 6.061 6.061 0 0 0 -1.537-.765 7.026 7.026 0 0 0 -2.238-.3 8.623 8.623 0 0 0 -5.44 1.911 13.061 13.061 0 0 0 -3.877 5.189q-1.476 3.383-.589 5.136t3.922 1.754a10.9 10.9 0 0 0 2.688-.323 12.591 12.591 0 0 0 2.214-.762 16.026 16.026 0 0 0 1.63-.876q.74-.459 1.389-.9h1.061l-2.789 6.388a30.3 30.3 0 0 1 -4.272 1.321 20 20 0 0 1 -4.468.487z"
       transform="translate(-910.974 -76.538)"
       id="path18"
       style="fill:#582e90;fill-opacity:1" />
    <path
       d="m1420.681 1.145a3.774 3.774 0 0 1 1.083 2.68 3.7 3.7 0 0 1 -1.125 2.7 3.873 3.873 0 0 1 -2.7 1.114 3.838 3.838 0 0 1 -3.8-3.815 3.841 3.841 0 0 1 .557-1.986 3.7 3.7 0 0 1 3.242-1.838 3.79 3.79 0 0 1 2.743 1.145m-4.95.389a3.232 3.232 0 0 0 -.967 2.281 3.111 3.111 0 0 0 .914 2.228 3.168 3.168 0 0 0 2.26.967 3.283 3.283 0 0 0 2.259-.935 3.063 3.063 0 0 0 .935-2.2 3.144 3.144 0 0 0 -.9-2.291 3.11 3.11 0 0 0 -2.28-.956 3.044 3.044 0 0 0 -2.217.9m2.29.094c1.209 0 1.808.41 1.808 1.219a1.131 1.131 0 0 1 -.925 1.124l.945 1.892h-1.153l-.8-1.727h-.5v1.734h-1.03v-4.235zm-.63 1.881h.5c.589 0 .872-.178.872-.6 0-.441-.305-.631-.925-.631h-.452z"
       transform="translate(-1145.384)"
       id="path19"
       style="fill:#582e90;fill-opacity:1" />
    <path
       d="m0 0h128.395v3.971h-128.395z"
       transform="translate(51.234 49.901)"
       id="path20"
       style="fill:#582e90;fill-opacity:1" />
    <path
       d="m970.789 260.921a4.486 4.486 0 0 1 -2.728-.733 2.442 2.442 0 0 1 -.986-2.083 4.342 4.342 0 0 1 1.522-3.43 5.664 5.664 0 0 1 3.862-1.327 9.38 9.38 0 0 1 1.64.134 6.434 6.434 0 0 1 1.569.511l-.468 1.707h-.236a4.3 4.3 0 0 0 -1.247-.775 3.715 3.715 0 0 0 -1.3-.217 3.142 3.142 0 0 0 -1.3.261 2.971 2.971 0 0 0 -1.6 1.7 3.361 3.361 0 0 0 -.22 1.206 1.518 1.518 0 0 0 .539 1.287 2.918 2.918 0 0 0 1.755.413q.121 0 .264 0c.1 0 .184-.008.264-.015l.37-1.423h-1.632l.357-1.374h3.774l-.934 3.594q-.731.225-1.558.4a8.4 8.4 0 0 1 -1.706.171"
       transform="translate(-783.287 -205.2)"
       id="path21"
       style="fill:#582e90;fill-opacity:1" />
    <path
       d="m970.789 260.921a4.486 4.486 0 0 1 -2.728-.733 2.442 2.442 0 0 1 -.986-2.083 4.342 4.342 0 0 1 1.522-3.43 5.664 5.664 0 0 1 3.862-1.327 9.38 9.38 0 0 1 1.64.134 6.434 6.434 0 0 1 1.569.511l-.468 1.707h-.236a4.3 4.3 0 0 0 -1.247-.775 3.715 3.715 0 0 0 -1.3-.217 3.142 3.142 0 0 0 -1.3.261 2.971 2.971 0 0 0 -1.6 1.7 3.361 3.361 0 0 0 -.22 1.206 1.518 1.518 0 0 0 .539 1.287 2.918 2.918 0 0 0 1.755.413q.121 0 .264 0c.1 0 .184-.008.264-.015l.37-1.423h-1.632l.357-1.374h3.774l-.934 3.594q-.731.225-1.558.4a8.4 8.4 0 0 1 -1.707.164z"
       transform="translate(-783.287 -205.2)"
       id="path22"
       style="fill:#582e90;fill-opacity:1" />
    <path
       d="m1021.6 255.927a1.994 1.994 0 0 1 -.6 1.471 3.757 3.757 0 0 1 -1.627.9l1.891 3.076h-2.354l-1.541-2.67h-1.185l-.694 2.67h-2.109l1.887-7.28h3.193a4.86 4.86 0 0 1 2.319.452 1.479 1.479 0 0 1 .819 1.381m-2.274.316a.659.659 0 0 0 -.316-.622 1.9 1.9 0 0 0 -.931-.183h-1.044l-.509 1.956h1.038a2.349 2.349 0 0 0 1.3-.3.961.961 0 0 0 .461-.846"
       transform="translate(-820.795 -205.804)"
       id="path23"
       style="fill:#582e90;fill-opacity:1" />
    <path
       d="m1021.6 255.927a1.994 1.994 0 0 1 -.6 1.471 3.757 3.757 0 0 1 -1.627.9l1.891 3.076h-2.354l-1.541-2.67h-1.185l-.694 2.67h-2.109l1.887-7.28h3.193a4.86 4.86 0 0 1 2.319.452 1.479 1.479 0 0 1 .82 1.381zm-2.274.316a.659.659 0 0 0 -.316-.622 1.9 1.9 0 0 0 -.931-.183h-1.044l-.509 1.956h1.038a2.349 2.349 0 0 0 1.3-.3.961.961 0 0 0 .464-.852z"
       transform="translate(-820.795 -205.804)"
       id="path24"
       style="fill:#582e90;fill-opacity:1" />
    <path
       d="m1070.129 256.156a4.768 4.768 0 0 1 -.341 1.76 4.363 4.363 0 0 1 -.989 1.511 4.861 4.861 0 0 1 -1.654 1.078 5.883 5.883 0 0 1 -2.175.374 4.049 4.049 0 0 1 -2.623-.77 2.584 2.584 0 0 1 -.948-2.12 4.575 4.575 0 0 1 .363-1.8 4.513 4.513 0 0 1 1.038-1.506 4.87 4.87 0 0 1 1.631-1.007 5.827 5.827 0 0 1 2.121-.376 4.047 4.047 0 0 1 2.629.773 2.551 2.551 0 0 1 .948 2.087m-3.016 2.484a3.267 3.267 0 0 0 .585-1.009 3.811 3.811 0 0 0 .212-1.323 1.707 1.707 0 0 0 -.421-1.225 1.578 1.578 0 0 0 -1.2-.442 2.365 2.365 0 0 0 -.975.208 2.607 2.607 0 0 0 -.854.633 3.052 3.052 0 0 0 -.61 1.01 3.779 3.779 0 0 0 -.231 1.357 1.7 1.7 0 0 0 .431 1.262 1.628 1.628 0 0 0 1.2.425 2.344 2.344 0 0 0 1.016-.232 2.52 2.52 0 0 0 .852-.663"
       transform="translate(-859.685 -205.158)"
       id="path25"
       style="fill:#582e90;fill-opacity:1" />
    <path
       d="m1070.129 256.156a4.768 4.768 0 0 1 -.341 1.76 4.363 4.363 0 0 1 -.989 1.511 4.861 4.861 0 0 1 -1.654 1.078 5.883 5.883 0 0 1 -2.175.374 4.049 4.049 0 0 1 -2.623-.77 2.584 2.584 0 0 1 -.948-2.12 4.575 4.575 0 0 1 .363-1.8 4.513 4.513 0 0 1 1.038-1.506 4.87 4.87 0 0 1 1.631-1.007 5.827 5.827 0 0 1 2.121-.376 4.047 4.047 0 0 1 2.629.773 2.551 2.551 0 0 1 .948 2.083zm-3.016 2.484a3.267 3.267 0 0 0 .585-1.009 3.811 3.811 0 0 0 .212-1.323 1.707 1.707 0 0 0 -.421-1.225 1.578 1.578 0 0 0 -1.2-.442 2.365 2.365 0 0 0 -.975.208 2.607 2.607 0 0 0 -.854.633 3.052 3.052 0 0 0 -.61 1.01 3.779 3.779 0 0 0 -.231 1.357 1.7 1.7 0 0 0 .431 1.262 1.628 1.628 0 0 0 1.2.425 2.344 2.344 0 0 0 1.016-.232 2.52 2.52 0 0 0 .847-.664z"
       transform="translate(-859.685 -205.158)"
       id="path26"
       style="fill:#582e90;fill-opacity:1" />
    <path
       d="m1121.151 254.093-1.186 4.548a3.753 3.753 0 0 1 -1.357 2.193 4.736 4.736 0 0 1 -2.769.682 4.686 4.686 0 0 1 -2.445-.516 1.717 1.717 0 0 1 -.83-1.562 2.526 2.526 0 0 1 .039-.435c.026-.147.053-.28.082-.4l1.176-4.508h2.126l-1.172 4.513a2.52 2.52 0 0 0 -.063.3 1.87 1.87 0 0 0 -.025.271.822.822 0 0 0 .31.7 1.727 1.727 0 0 0 1.03.237 1.761 1.761 0 0 0 1.129-.342 1.923 1.923 0 0 0 .618-1.066l1.2-4.611z"
       transform="translate(-901.127 -205.804)"
       id="path27"
       style="fill:#582e90;fill-opacity:1" />
    <path
       d="m1121.151 254.093-1.186 4.548a3.753 3.753 0 0 1 -1.357 2.193 4.736 4.736 0 0 1 -2.769.682 4.686 4.686 0 0 1 -2.445-.516 1.717 1.717 0 0 1 -.83-1.562 2.526 2.526 0 0 1 .039-.435c.026-.147.053-.28.082-.4l1.176-4.508h2.126l-1.172 4.513a2.52 2.52 0 0 0 -.063.3 1.87 1.87 0 0 0 -.025.271.822.822 0 0 0 .31.7 1.727 1.727 0 0 0 1.03.237 1.761 1.761 0 0 0 1.129-.342 1.923 1.923 0 0 0 .618-1.066l1.2-4.611z"
       transform="translate(-901.127 -205.804)"
       id="path28"
       style="fill:#582e90;fill-opacity:1" />
    <path
       d="m1166.231 256.108a2.415 2.415 0 0 1 -1.212 2.1 6.132 6.132 0 0 1 -3.388.8h-.8l-.615 2.371h-2.12l1.887-7.28h2.941a8.75 8.75 0 0 1 1.4.1 3.2 3.2 0 0 1 1.031.338 1.7 1.7 0 0 1 .654.623 1.862 1.862 0 0 1 .225.956m-2.252.181a.683.683 0 0 0 -.347-.631 2.056 2.056 0 0 0 -1.029-.205h-.853l-.565 2.181h.759a2.732 2.732 0 0 0 1.5-.35 1.12 1.12 0 0 0 .536-1"
       transform="translate(-938.004 -205.804)"
       id="path29"
       style="fill:#582e90;fill-opacity:1" />
    <path
       d="m1166.231 256.108a2.415 2.415 0 0 1 -1.212 2.1 6.132 6.132 0 0 1 -3.388.8h-.8l-.615 2.371h-2.12l1.887-7.28h2.941a8.75 8.75 0 0 1 1.4.1 3.2 3.2 0 0 1 1.031.338 1.7 1.7 0 0 1 .654.623 1.862 1.862 0 0 1 .222.948zm-2.252.181a.683.683 0 0 0 -.347-.631 2.056 2.056 0 0 0 -1.029-.205h-.853l-.565 2.181h.759a2.732 2.732 0 0 0 1.5-.35 1.12 1.12 0 0 0 .535-.995z"
       transform="translate(-938.004 -205.804)"
       id="path30"
       style="fill:#582e90;fill-opacity:1" />
  </g>
</svg>
