<?xml version="1.0" standalone="no"?>
<!DOCTYPE svg PUBLIC "-//W3C//DTD SVG 20010904//EN"
 "http://www.w3.org/TR/2001/REC-SVG-20010904/DTD/svg10.dtd">
<svg version="1.0" xmlns="http://www.w3.org/2000/svg"
 width="702.000000pt" height="702.000000pt" viewBox="0 0 702.000000 702.000000"
 preserveAspectRatio="xMidYMid meet">
<metadata>
Created by potrace 1.14, written by Peter Selinger 2001-2017
</metadata>
<g transform="translate(0.000000,702.000000) scale(0.100000,-0.100000)"
fill="#000000" stroke="none">
<path d="M5118 5505 c-2 -1 -26 -5 -55 -9 -28 -3 -57 -8 -65 -11 -7 -2 -29 -6
-48 -9 -45 -5 -100 -25 -100 -37 0 -11 15 -12 100 -8 193 8 265 -6 253 -50
-11 -44 -104 -69 -198 -52 -155 27 -266 33 -305 17 -37 -16 -112 -88 -99 -96
6 -4 44 -6 85 -5 90 3 189 -14 227 -39 33 -22 34 -30 2 -61 -20 -21 -57 -31
-96 -27 -116 14 -179 11 -257 -12 -85 -26 -131 -27 -213 -5 -20 5 -62 12 -92
15 -74 8 -113 -12 -215 -112 -42 -42 -96 -85 -119 -95 -45 -21 -51 -30 -30
-47 34 -28 70 -18 165 46 47 32 61 36 115 37 34 0 87 -4 117 -9 102 -16 191
-13 263 10 29 9 19 -13 -15 -34 -31 -18 -87 -33 -181 -48 -21 -3 -53 -12 -72
-20 -39 -16 -148 -121 -140 -135 3 -4 20 -6 37 -2 28 6 30 5 19 -15 -31 -58
-129 -105 -250 -118 -43 -4 -49 -11 -25 -29 22 -16 181 -20 249 -6 22 5 112
24 200 41 l161 33 42 -28 c23 -15 42 -31 42 -36 0 -16 -77 -48 -131 -53 -30
-4 -155 -8 -279 -11 -124 -2 -243 -7 -265 -10 -40 -5 -152 -22 -210 -31 -86
-14 -249 -50 -405 -90 -96 -26 -186 -48 -200 -51 -55 -10 -296 -96 -363 -129
-124 -62 -378 -217 -428 -261 -25 -24 -55 -62 -64 -85 -21 -50 -29 -214 -15
-293 5 -27 11 -66 13 -85 3 -19 19 -95 37 -168 18 -73 30 -136 27 -138 -3 -3
-34 -12 -68 -21 -61 -14 -223 -14 -354 2 -22 2 -74 7 -115 10 l-75 5 -59 60
c-32 33 -67 60 -77 60 -25 0 -116 -75 -135 -111 -8 -17 -17 -55 -18 -84 -1
-49 -5 -56 -63 -116 -56 -58 -78 -85 -153 -178 -45 -56 -91 -69 -275 -76
l-110 -5 -37 -40 c-64 -72 -80 -169 -34 -215 17 -18 20 -31 17 -83 -2 -38 13
-62 40 -62 9 0 28 -15 40 -32 39 -58 39 -58 159 -23 61 18 129 45 152 61 95
65 323 308 367 392 7 12 38 35 70 51 l59 28 373 0 c373 1 374 1 474 27 105 28
206 71 241 102 31 28 66 100 137 284 102 262 182 429 271 568 64 98 73 98 23
0 -24 -46 -50 -101 -59 -123 -9 -22 -27 -62 -39 -90 -13 -27 -24 -52 -24 -55
-1 -3 -7 -18 -14 -35 -40 -93 -111 -298 -106 -303 5 -6 22 8 95 75 101 93 119
106 205 148 182 89 499 145 582 101 43 -22 46 -30 22 -60 -32 -41 -6 -41 106
-1 91 33 111 37 228 40 141 5 140 4 220 82 59 57 96 127 102 191 5 68 -4 74
-94 66 -120 -11 -193 -11 -228 0 -38 11 -43 26 -9 26 26 0 82 22 107 42 21 17
37 49 44 86 7 40 -20 56 -81 48 -24 -2 -46 -1 -49 5 -4 5 0 9 7 9 19 0 65 45
85 83 9 18 34 76 55 131 44 115 74 158 129 187 51 25 138 28 204 6 101 -34
298 -115 304 -126 9 -13 87 -28 161 -30 30 -1 71 -5 90 -9 l35 -8 -68 -31
c-66 -31 -84 -52 -49 -54 39 -3 80 -1 140 6 l63 7 -27 -48 c-15 -27 -36 -61
-46 -77 -17 -24 -18 -28 -4 -33 16 -6 243 3 255 10 3 2 29 7 56 10 28 4 68 12
90 18 22 5 50 12 62 14 12 2 34 9 48 14 36 14 37 13 30 -10 -5 -17 -2 -20 23
-20 67 0 172 49 172 80 0 12 -122 140 -269 284 -68 67 -139 137 -159 156 -19
19 -48 55 -63 79 -52 81 -35 172 44 233 36 28 39 21 10 -23 -40 -60 -43 -133
-9 -192 38 -63 397 -414 449 -438 51 -23 69 -23 136 -3 69 20 96 48 105 108 4
26 6 50 3 52 -2 2 -28 -7 -58 -21 -65 -30 -124 -33 -138 -7 -5 10 -12 38 -15
63 -11 91 39 191 105 211 66 19 109 -16 109 -88 0 -24 0 -24 33 -8 73 38 104
101 122 251 7 60 3 65 -101 102 -57 21 -124 71 -124 93 0 5 -15 32 -32 59 -25
37 -58 67 -130 115 -112 74 -166 99 -234 109 -58 7 -61 10 -67 53 -13 82 -80
144 -194 178 -68 20 -100 23 -245 22 -92 0 -168 -1 -170 -3z m847 -537 c21 -9
24 -16 19 -42 -8 -49 -26 -62 -64 -46 -43 18 -141 95 -132 104 10 11 146 -2
177 -16z"/>
<path d="M4499 4373 c-78 -23 -116 -75 -133 -186 -7 -44 -27 -97 -36 -97 -4 0
-15 -12 -25 -26 -17 -26 -16 -27 14 -55 21 -18 31 -37 31 -56 0 -34 -32 -97
-66 -128 -43 -40 -37 -41 106 -20 19 3 46 7 60 10 73 14 123 -41 99 -112 -25
-78 -55 -120 -146 -210 -51 -50 -93 -94 -93 -98 0 -7 110 4 123 12 5 3 81 7
170 9 202 4 249 -8 315 -83 l43 -48 42 47 c68 75 55 73 402 71 338 -2 574 -9
618 -18 57 -12 107 -37 107 -55 0 -17 -27 -61 -77 -127 -13 -17 -20 -34 -15
-37 8 -5 43 -2 88 8 24 5 38 -3 46 -25 5 -13 15 -15 52 -9 58 9 120 -15 226
-86 130 -88 179 -90 250 -11 25 28 54 48 80 56 22 6 57 21 76 33 36 21 36 22
32 76 -6 68 -82 221 -119 239 -27 13 -110 21 -294 28 -149 5 -165 8 -295 60
-227 91 -280 122 -530 309 -58 43 -118 85 -135 93 -30 16 -96 19 -285 13 -171
-5 -188 2 -95 40 53 22 143 95 131 108 -4 3 -54 7 -112 8 -88 2 -113 6 -151
26 -52 26 -56 40 -16 49 42 10 83 28 83 37 0 4 -28 14 -62 21 -113 22 -139 32
-133 51 7 23 -7 32 -90 58 -122 38 -214 46 -286 25z"/>
<path d="M2355 4031 c-77 -27 -147 -62 -210 -104 -32 -23 -214 -168 -236 -189
-40 -39 -203 -170 -260 -211 -169 -120 -386 -173 -500 -122 -25 12 -46 33 -69
73 -18 31 -49 83 -67 114 -39 65 -136 193 -167 220 -69 60 -134 84 -311 117
-192 35 -275 44 -364 38 -78 -5 -171 -30 -171 -46 0 -4 13 -15 30 -24 16 -10
43 -37 59 -60 82 -118 152 -128 286 -42 134 85 193 94 292 45 92 -46 147 -112
237 -286 119 -232 193 -297 341 -297 181 -1 317 49 488 177 91 69 99 75 298
267 185 177 272 250 339 284 66 34 87 52 75 63 -7 7 -37 1 -90 -17z"/>
<path d="M5756 3994 c-39 -13 -82 -24 -97 -24 -73 0 -37 -37 166 -167 317
-204 388 -232 588 -227 59 1 151 10 203 19 107 20 114 26 114 110 0 40 -4 47
-56 94 -66 61 -130 97 -147 83 -7 -5 -51 -31 -100 -56 -120 -65 -172 -70 -253
-27 -33 17 -99 65 -147 106 -151 127 -157 129 -271 89z"/>
<path d="M6701 3847 c-7 -7 -1 -17 15 -30 24 -18 26 -18 44 -2 31 28 25 45
-15 43 -19 -1 -39 -6 -44 -11z"/>
<path d="M6761 3678 c-13 -35 2 -56 38 -50 35 5 40 21 14 44 -34 29 -43 30
-52 6z"/>
<path d="M6865 3390 c-9 -15 17 -60 35 -60 22 0 56 38 44 49 -14 13 -73 21
-79 11z"/>
<path d="M6883 3127 c-33 -32 -29 -50 16 -75 49 -28 51 -28 51 6 0 22 -33 94
-42 91 -2 0 -13 -10 -25 -22z"/>
<path d="M6656 2959 c-36 -28 -33 -40 16 -72 46 -29 59 -24 52 22 -13 79 -22
86 -68 50z"/>
<path d="M2488 2724 c-8 -8 -281 -23 -483 -28 l-59 -1 -51 -96 c-65 -125 -98
-174 -154 -227 -58 -56 -108 -81 -256 -127 -66 -20 -123 -40 -127 -44 -3 -3
-8 -38 -10 -78 -2 -58 1 -75 16 -92 10 -11 21 -35 25 -53 6 -29 14 -35 86 -65
145 -59 274 -35 394 73 59 53 78 85 100 166 11 39 38 88 86 155 102 142 182
217 311 292 136 79 159 95 159 111 0 12 -29 23 -37 14z"/>
<path d="M637 2574 c-2 -2 -21 -5 -41 -6 -45 -2 -54 -14 -29 -40 24 -24 95
-49 106 -39 12 12 -3 79 -18 85 -7 2 -15 3 -18 0z"/>
<path d="M643 2369 c-45 -13 -41 -36 9 -59 47 -21 54 -18 61 21 8 44 -11 55
-70 38z"/>
<path d="M726 2214 c-16 -15 -16 -17 1 -29 31 -21 63 -27 78 -15 8 7 15 15 15
19 -1 34 -68 52 -94 25z"/>
<path d="M1227 2123 c-63 -18 -60 -41 8 -64 57 -20 67 -13 58 36 -8 43 -12 44
-66 28z"/>
<path d="M1257 1964 c-36 -19 -31 -34 18 -51 41 -14 56 -6 50 26 -2 9 -4 22
-4 29 -1 16 -30 15 -64 -4z"/>
<path d="M1393 1870 c-13 -6 -23 -18 -23 -30 0 -17 6 -20 45 -20 49 0 67 18
45 45 -14 17 -34 18 -67 5z"/>
</g>
</svg>
