<?xml version="1.0" encoding="UTF-8" standalone="no"?>
<!-- Created with Inkscape (http://www.inkscape.org/) -->

<svg
   width="451.52628mm"
   height="147.53748mm"
   viewBox="0 0 451.52628 147.53747"
   version="1.1"
   id="svg5"
   inkscape:version="1.3 (0e150ed6c4, 2023-07-21)"
   sodipodi:docname="04 LB Lion + Large Text.svg"
   xmlns:inkscape="http://www.inkscape.org/namespaces/inkscape"
   xmlns:sodipodi="http://sodipodi.sourceforge.net/DTD/sodipodi-0.dtd"
   xmlns="http://www.w3.org/2000/svg"
   xmlns:svg="http://www.w3.org/2000/svg">
  <sodipodi:namedview
     id="namedview7"
     pagecolor="#ffffff"
     bordercolor="#666666"
     borderopacity="1.0"
     inkscape:pageshadow="2"
     inkscape:pageopacity="0"
     inkscape:pagecheckerboard="0"
     inkscape:document-units="mm"
     showgrid="false"
     inkscape:zoom="0.85674653"
     inkscape:cx="727.75317"
     inkscape:cy="381.09288"
     inkscape:window-width="2560"
     inkscape:window-height="1369"
     inkscape:window-x="1912"
     inkscape:window-y="-8"
     inkscape:window-maximized="1"
     inkscape:current-layer="layer1-4"
     width="211mm"
     inkscape:showpageshadow="2"
     inkscape:deskcolor="#d1d1d1" />
  <defs
     id="defs2">
    <clipPath
       clipPathUnits="userSpaceOnUse"
       id="clipEmfPath1">
      <path
         d="M 0,0 H 382.60346 V 85.218898 H 0 Z"
         id="path12331" />
    </clipPath>
    <pattern
       id="EMFhbasepattern"
       patternUnits="userSpaceOnUse"
       width="6"
       height="6"
       x="0"
       y="0" />
  </defs>
  <g
     inkscape:label="Layer 1"
     inkscape:groupmode="layer"
     id="layer1"
     transform="translate(-1.2284194,-2.0091659)">
    <path
       style="fill:#00aaff;fill-opacity:1;stroke-width:0.454606"
       d=""
       id="path5003"
       transform="scale(0.26458333)" />
    <path
       style="fill:#00aaff;fill-opacity:1;stroke-width:0.454606"
       d=""
       id="path5046"
       transform="scale(0.26458333)" />
    <path
       style="fill:#00aaff;fill-opacity:1;stroke-width:0.454606"
       d=""
       id="path5584"
       transform="scale(0.26458333)" />
    <path
       style="fill:#00aaff;fill-opacity:1;stroke-width:0.454606"
       d=""
       id="path5777"
       transform="scale(0.26458333)" />
    <path
       style="fill:#00aaff;fill-opacity:1;stroke-width:0.454606"
       d=""
       id="path5931"
       transform="scale(0.26458333)" />
    <g
       inkscape:label="Layer 1"
       id="layer1-4"
       transform="translate(0.99351412,1.4862815)">
      <path
         style="fill:#00aaff;fill-opacity:1;stroke:#00aaff;stroke-width:0.169333;stroke-opacity:1"
         d="m 51.705939,136.5328 c -0.0931,-0.0359 -0.37888,-0.11148 -0.635,-0.16797 -1.00193,-0.22098 -0.15415,-1.4175 1.2775,-1.803 0.93545,-0.25189 1.484039,-0.0477 1.853219,0.68981 0.28058,0.56052 0.28022,0.60226 -0.008,0.89017 -0.283189,0.28319 -2.048069,0.56054 -2.488029,0.39099 z m 6.688667,-2.31 c -1.11845,-0.10003 -1.65748,-0.26958 -3.47134,-1.09191 -0.558798,-0.25334 -1.511297,-0.62935 -2.116657,-0.83559 l -1.10067,-0.37497 -0.0978,-1.00087 c -0.1177,-1.20445 -0.29873,-1.57309 -1.05626,-2.15089 l -0.57762,-0.44057 0.0384,-2.76071 c 0.0211,-1.51839 0.0488,-2.80563 0.0615,-2.86053 0.0465,-0.20085 0.97568,-0.52037 5.155208,-1.77271 5.93124,-1.7772 7.36603,-2.54052 9.97698,-5.30783 1.91228,-2.0268 3.20399,-4.11378 6.24604,-10.09164 l 0.60321,-1.18533 2.69449,-0.0353 c 1.481969,-0.0194 4.86692,-0.11656 7.5221,-0.21584 4.19712,-0.15693 6.26542,-0.31613 10.28539,-0.79171 0.86889,-0.10279 0.889,-0.0953 0.889,0.32953 0,0.29591 -0.20153,0.60081 -0.63124,0.95502 -0.34719,0.28618 -0.6857,0.52033 -0.75224,0.52033 -0.15467,0 -4.66411,2.61198 -6.65985,3.85754 -3.82321,2.38612 -5.27999,3.80232 -8.21266,7.98388 -1.07104,1.52713 -2.43824,3.3928 -3.03823,4.14593 -1.07355,1.34754 -1.09441,1.39355 -1.31224,2.89331 -0.86384,5.94778 -7.75618,10.8292 -14.44553,10.23089 z m -11.221917,-1.16908 c -0.63062,-0.16809 -1.261191,-0.40074 -1.401271,-0.51699 -0.22519,-0.18689 -0.21987,-0.25007 0.0459,-0.5454 0.783031,-0.87008 2.720251,-1.61014 3.005721,-1.14824 0.13015,0.21058 0.23428,2.0594 0.13153,2.33516 -0.10064,0.27008 -0.37285,0.25105 -1.78189,-0.12453 z m -0.46208,-5.03023 c -1.443981,-0.24172 -3.171441,-1.28008 -3.002241,-1.80462 0.0901,-0.27927 2.46088,-1.10317 3.210681,-1.11578 0.6989,-0.0118 0.70019,-0.01 0.95899,1.65177 0.10891,0.69915 0.086,0.95462 -0.10235,1.143 -0.24552,0.24552 -0.30613,0.25267 -1.06508,0.12563 z m -18.249034,-4.37878 c -1.376439,-0.37057 -1.93182,-0.70918 -1.869802,-1.14 0.07347,-0.51035 0.73109,-0.79336 1.850327,-0.7963 1.221923,-0.003 1.84317,0.42615 1.84317,1.27384 0,0.3946 -0.10253,0.62929 -0.327535,0.74971 -0.395688,0.21176 -0.382724,0.21252 -1.49616,-0.0873 z m 4.753227,-1.64246 c -0.190761,-0.20955 -0.63194,-0.81615 -0.9804,-1.348 -0.737395,-1.12548 -1.153809,-1.43839 -2.119768,-1.59285 -0.914754,-0.14628 -1.037913,-0.47981 -1.002221,-2.71413 l 0.0278,-1.7403 -0.689049,-0.7828 c -0.889171,-1.01015 -1.105267,-1.69487 -1.006893,-3.19043 0.09125,-1.38732 0.658739,-2.67099 1.846385,-4.17662 1.577594,-1.99997 1.529964,-1.98408 6.255963,-2.08665 4.337139,-0.0941 6.012279,-0.3242 7.581619,-1.04129 1.2226,-0.55864 1.86,-1.17346 3.0689,-2.96016 0.546341,-0.807463 2.177861,-2.691683 3.713471,-4.288623 1.50645,-1.56661 2.936829,-3.14733 3.17862,-3.5127 0.40275,-0.6086 0.42562,-0.73509 0.27271,-1.50845 -0.37463,-1.89472 0.38482,-3.87161 2.036547,-5.30121 1.45215,-1.25687 3.02908,-2.32146 3.43866,-2.32146 0.53245,0 1.72032,1.07936 4.08269,3.70975 l 0.67036,0.74642 3.45587,0.3054 c 1.90073,0.16797 4.86557,0.4302 6.58854,0.58273 3.67672,0.3255 7.26112,0.36682 8.79785,0.10142 2.15151,-0.37157 3.57538,-0.7444 3.9254,-1.02784 l 0.35577,-0.28808 -0.546,-2.10723 c -1.43632,-5.54328 -2.12387,-8.92154 -2.53964,-12.47839 -0.4194,-3.58787 -0.42585,-6.01408 -0.0222,-8.34018 0.66948,-3.85791 1.73351,-4.93996 9.41748,-9.57687 10.900994,-6.57824 13.749934,-7.71635 29.040674,-11.60133 1.44356,-0.36677 2.89136,-0.74377 3.21733,-0.83778 2.49892,-0.7207 10.10222,-2.33009 13.88533,-2.93911 7.23647,-1.16496 8.915,-1.29937 17.272,-1.38308 8.86069,-0.0888 9.80176,-0.14433 11.42695,-0.67485 1.34449,-0.43888 3.20073,-1.49864 3.10559,-1.77304 -0.03,-0.0865 -0.72931,-0.61737 -1.55404,-1.17963 -1.1676,-0.79603 -1.63824,-1.0223 -2.12633,-1.0223 -0.81424,0 -3.39621,0.47643 -8.2275,1.51816 -6.42531,1.38543 -6.68978,1.42441 -9.73667,1.43524 -2.55235,0.009 -2.87921,-0.0245 -3.77932,-0.3876 -0.86136,-0.34751 -1.31865,-0.74161 -1.10658,-0.95368 0.0366,-0.0366 0.63659,-0.11356 1.33325,-0.17096 4.78558,-0.39429 8.18767,-2.03735 9.63159,-4.65163 l 0.40627,-0.73556 -0.66027,0.10985 c -0.36315,0.0604 -0.94467,0.15792 -1.29227,0.21668 -0.4931,0.0833 -0.65514,0.0465 -0.7373,-0.16759 -0.12994,-0.3386 3.53792,-4.018428 4.48897,-4.503618 0.83875,-0.42789 2.24577,-0.77985 5.0519,-1.2637 2.83427,-0.4887 3.61711,-0.69251 4.61027,-1.2003 0.82795,-0.42333 1.99798,-1.53059 1.8129,-1.71567 -0.0628,-0.0628 -1.12055,0.0979 -2.35062,0.35709 -2.59139,0.54598 -4.81088,0.6003 -7.41812,0.18156 -3.40751,-0.54727 -4.35232,-0.63913 -5.75267,-0.55929 -1.71536,0.0978 -2.23766,0.32135 -4.238,1.81385 -2.53223,1.88936 -3.76951,2.24032 -5.25578,1.49083 -0.91056,-0.45916 -1.0732,-0.91194 -0.3858,-1.074 0.2623,-0.0618 1.01032,-0.38667 1.66225,-0.72184 0.97592,-0.50174 1.6939,-1.12048 4.064,-3.50231 2.38643,-2.39825 3.08559,-2.99973 4.08876,-3.51755 1.0855,-0.56032 1.34369,-0.62463 2.50756,-0.62463 1.5874,0 3.22241,0.24199 5.34168,0.7906 0.88477,0.22904 2.21827,0.4551 2.96333,0.50235 1.47054,0.0933 1.82704,0.0162 4.77967,-1.03307 1.57245,-0.5588 1.8994,-0.61609 3.556,-0.62308 1.00339,-0.004 2.45583,0.0798 3.22765,0.18669 2.46713,0.34174 3.94868,0.28761 4.87856,-0.17827 1.03764,-0.51986 1.84321,-1.49776 1.7009,-2.06477 -0.13331,-0.53116 -1.17284,-1.24233 -2.54274,-1.73958 -1.67825,-0.60917 -3.68911,-0.80927 -7.09104,-0.70563 -2.21561,0.0675 -3.00424,0.0401 -3.00028,-0.10417 0.0157,-0.5726104 2.16886,-2.6669004 3.34928,-3.2578004 0.86585,-0.43342 1.16896,-0.48854 2.99534,-0.5447 1.7169,-0.0528 2.60966,0.0308 5.75733,0.5392 5.03109,0.81258 5.68352,0.86333 7.1378,0.55525 1.81575,-0.38466 3.2762,-1.47882 3.2762,-2.4545 0,-0.48742 -1.09874,-1.32938 -2.01519,-1.54424 -1.2447,-0.29181 -5.31918,-0.25293 -8.96066,0.0855 -0.92436,0.0859 -2.06282,-0.10799 -2.06282,-0.35133 0,-0.69537 2.53165,-1.31953 8.61185,-2.12317004 2.14158,-0.28306 3.57781,-0.35076 7.49996,-0.35356 5.3452,-0.004 6.66112,0.12438 9.20352,0.89649004 2.24132,0.68068 3.50067,1.36889 4.75729,2.59978 1.29105,1.2646 1.91917,2.55626 2.08497,4.2875 0.0706,0.73717 0.21026,1.29608 0.34464,1.37912 0.12426,0.0768 0.6688,0.14587 1.21007,0.15349 1.57558,0.0222 3.31147,0.4670004 4.96884,1.2732604 2.11365,1.02823 7.50216,4.63417 8.32937,5.57393 0.36808,0.41815 1.14985,1.66338 1.73731,2.76716 0.58745,1.10378 1.27045,2.22271 1.5178,2.48651 0.52039,0.55501 2.58497,1.58045 4.45673,2.21357 0.71373,0.24141 1.64718,0.58875 2.07434,0.77185 0.75304,0.32279 0.77664,0.35536 0.77664,1.07145 0,0.98797 -0.45307,4.194868 -0.76787,5.435108 -0.60828,2.39651 -2.02664,4.36767 -3.78328,5.25782 -0.9811,0.49716 -1.28287,0.43912 -1.15242,-0.22164 0.13425,-0.68009 -0.13159,-1.81381 -0.58103,-2.47783 -1.15203,-1.70206 -3.80037,-1.58665 -5.44832,0.23743 -0.73296,0.8113 -1.49377,2.27055 -1.87658,3.59932 -0.55972,1.94279 -0.24406,4.82007 0.64175,5.8499 0.35874,0.41704 0.49925,0.46003 1.42037,0.4345 1.27105,-0.0352 2.65906,-0.48228 4.30913,-1.38789 0.97817,-0.53686 1.29296,-0.64336 1.36289,-0.46113 0.146,0.38051 -0.33694,3.65104 -0.58611,3.96916 -0.39737,0.50733 -0.70693,0.71905 -1.92534,1.31681 -2.2694,1.11338 -4.82432,1.27487 -6.51596,0.41186 -1.41009,-0.71938 -3.55029,-2.6768 -10.89372,-9.96337 -5.81613,-5.77106 -6.46369,-6.70748 -6.45886,-9.33989 0.003,-1.597628 0.26094,-2.316958 1.57864,-4.400978 0.37897,-0.59939 0.66186,-1.11698 0.62863,-1.15022 -0.0332,-0.0332 -0.38608,0.10571 -0.78408,0.30875 -1.07601,0.54894 -2.40294,1.89055 -2.96291,2.99567 -0.44531,0.87886 -0.49445,1.138058 -0.49022,2.585448 0.004,1.36952 0.0697,1.74712 0.44154,2.54 0.83788,1.78645 2.12925,3.25497 6.16653,7.0125 5.03368,4.68491 12.03946,11.94352 12.49725,12.9483 0.16702,0.36655 0.10324,0.47935 -0.67621,1.19607 -0.9955,0.91535 -2.82558,1.59688 -4.97182,1.85151 -1.52256,0.18063 -1.71717,0.0673 -1.27967,-0.74509 0.17496,-0.32486 0.27951,-0.62924 0.23235,-0.6764 -0.0472,-0.0472 -0.72616,0.0977 -1.50886,0.32199 -5.81847,1.66701 -10.12632,2.337 -16.44166,2.55716 -1.57942,0.0551 -2.52625,0.0246 -2.59304,-0.0835 -0.0579,-0.0936 0.0537,-0.39332 0.24784,-0.666 0.60665,-0.85198 3.05142,-5.14997 2.97363,-5.22776 -0.0407,-0.0407 -0.82007,0.0652 -1.73194,0.23522 -1.71697,0.3202 -6.15749,0.45219 -6.42061,0.19085 -0.36272,-0.36024 0.4753,-0.90743 3.5773,-2.33587 1.47902,-0.68107 1.50901,-0.70611 1.016,-0.84848 -0.64382,-0.18593 -1.331,-0.2751 -3.13267,-0.40649 -3.50919,-0.25592 -4.72831,-0.38267 -5.96714,-0.62038 -0.98138,-0.18832 -1.49853,-0.51508 -1.15309,-0.72858 0.25497,-0.15757 0.21885,-0.42841 -0.0571,-0.42841 -0.44276,0 -3.74494,-1.14601 -5.34919,-1.85641 -2.5784,-1.14179 -5.41084,-2.2151 -6.76221,-2.56243 -2.52058,-0.64784 -5.3278,-0.32089 -7.12724,0.83009 -1.84628,1.18095 -2.73398,2.46098 -3.89799,5.62075 -0.39455,1.07103 -1.00664,2.72673 -1.3602,3.67932 -1.0538,2.83925 -2.35949,4.4903 -4.26681,5.3954 -0.34925,0.16574 -0.635,0.37094 -0.635,0.45601 0,0.0914 0.78982,0.10533 1.92907,0.0341 2.85058,-0.17811 3.57446,0.14996 3.39657,1.53936 -0.15795,1.2337 -0.48268,1.97311 -1.23305,2.80771 -0.9779,1.08766 -1.9745,1.57709 -3.99168,1.96033 -0.90127,0.17122 -1.65357,0.38476 -1.67178,0.47452 -0.0626,0.30845 1.91441,0.94233 3.23582,1.0375 0.71597,0.0516 2.6726,-0.0312 4.34807,-0.18383 6.07386,-0.55344 5.93248,-0.59226 5.91181,1.62327 -0.0149,1.59221 -0.30905,2.66242 -1.22592,4.4596 -0.70532,1.38253 -3.37647,4.19037 -5.0109,5.26731 l -1.00067,0.65936 -4.50267,0.0965 -4.50267,0.0965 -2.20133,0.77262 c -1.21073,0.42495 -2.42993,0.86541 -2.70933,0.97881 -2.14244,0.86955 -3.12774,1.14413 -3.31141,0.92282 -0.20569,-0.24784 -0.15509,-0.36883 0.52637,-1.25866 0.24963,-0.32597 0.49808,-0.72169 0.55211,-0.87937 0.16085,-0.46942 -0.92329,-1.26794 -2.28158,-1.68051 -1.07157,-0.32548 -1.44794,-0.35543 -3.25915,-0.25941 -3.09325,0.164 -7.42534,0.81191 -9.92168,1.48389 -2.07638,0.55894 -4.645,1.37444 -4.81753,1.52949 -0.0885,0.0795 -0.25802,0.14457 -0.37676,0.14457 -0.30131,0 -3.22112,1.34153 -4.45366,2.04626 -0.98014,0.56042 -3.09647,2.25785 -4.6664,3.74272 -3.9952,3.77878 -4.31231,4.0319 -4.31231,3.44206 0,-0.36328 2.48487,-7.20307 4.03031,-11.0937 1.72723,-4.34832 5.99264,-13.52262 6.66956,-14.34531 0.0932,-0.11329 0.14174,-0.28919 0.10784,-0.3909 -0.0749,-0.22481 -1.9658,2.26174 -3.22238,4.23754 -2.22717,3.50194 -4.45323,7.87446 -6.76732,13.29267 -1.52438,3.56918 -2.04269,4.87601 -3.86172,9.73666 -1.73927,4.6475 -2.79523,6.68882 -4.08854,7.90371 -1.880464,1.76645 -8.597314,4.046503 -13.545684,4.598133 -0.82432,0.0919 -6.46387,0.12191 -13.44274,0.0716 -8.74196,-0.0631 -12.27824,-0.0333 -12.95927,0.10891 -0.51514,0.10761 -1.65814,0.55567 -2.54,0.99568 l -1.60339,0.80002 -1.49476,2.1962 c -2.513347,3.69279 -5.583187,7.09855 -9.524767,10.56704 -4.140671,3.64369 -4.962411,4.08884 -9.100531,4.93001 -0.54197,0.11016 -1.523999,0.4224 -2.182289,0.69386 -1.439437,0.59357 -1.666572,0.60566 -2.115456,0.11256 z M 220.62552,23.473789 c 0.44072,-0.86389 0.62475,-2.54544 0.30695,-2.80464 -0.12753,-0.10402 -0.76527,-0.35761 -1.4172,-0.56355 -1.9807,-0.62567 -6.21029,-0.65733 -6.17258,-0.0462 0.0132,0.21409 2.62745,2.28143 3.7513,2.96653 1.20065,0.73191 2.65252,1.31143 2.97527,1.18758 0.12234,-0.047 0.37265,-0.37982 0.55626,-0.73972 z M 24.818636,118.6867 c -1.033719,-0.2985 -2.153365,-1.06334 -2.153365,-1.47099 0,-0.37422 0.876088,-0.74188 2.292585,-0.96209 1.56681,-0.24359 1.644983,-0.17368 1.52127,1.36051 -0.126091,1.56368 -0.0747,1.53048 -1.66049,1.07257 z m -1.222032,-6.95225 c -1.284679,-0.37345 -1.890139,-0.69687 -2.582333,-1.3794 -0.893091,-0.88063 -0.763128,-1.1178 0.677333,-1.23605 0.675217,-0.0554 1.584686,-0.151 2.021043,-0.21239 l 0.793376,-0.1116 0.276121,0.65578 c 0.406617,0.96571 0.53203,2.26096 0.237008,2.44775 -0.288707,0.18279 -0.190106,0.19416 -1.422548,-0.16409 z M 247.19685,97.639737 c -0.98131,-0.43934 -2.53558,-1.61775 -2.53558,-1.92241 0,-0.29548 2.16899,-1.95142 2.55601,-1.95142 0.15486,0 0.36678,0.20955 0.47092,0.46567 0.4294,1.05598 0.69046,3.4786 0.39456,3.66147 -0.074,0.0457 -0.47262,-0.0683 -0.88591,-0.25331 z m -5.02715,-4.28882 c -0.92373,-0.28869 -1.75338,-0.78149 -4.12285,-2.4489 -2.2609,-1.59102 -4.0717,-2.5762 -5.4873,-2.98541 -0.97806,-0.28273 -1.40414,-0.28567 -4.32362,-0.0298 -0.38513,0.0337 -0.41825,-0.0147 -0.36699,-0.53691 0.0342,-0.34792 -0.0326,-0.63037 -0.16934,-0.71708 -0.33741,-0.21389 -1.45266,-0.16701 -2.59633,0.10915 -1.31076,0.31649 -2.286,0.32589 -2.286,0.022 0,-0.27672 0.75956,-1.34177 1.99869,-2.80257 1.06924,-1.26052 1.54837,-2.21757 1.55358,-3.10327 0.004,-0.76176 -0.23083,-0.9409 -2.02827,-1.54401 -2.68678,-0.9015 -3.98726,-0.9988 -14.986,-1.12118 -5.588,-0.0622 -12.6746,-0.1046 -15.748,-0.0943 l -5.588,0.0188 -0.93291,0.43091 c -0.75938,0.35075 -1.16566,0.71883 -2.18416,1.97882 -1.34649,1.66572 -1.79268,1.96381 -2.16821,1.44852 -1.59438,-2.18776 -2.60364,-3.03831 -4.45139,-3.75139 -1.73582,-0.66988 -2.36144,-0.74726 -6.00564,-0.74282 -3.95761,0.005 -4.90984,0.0794 -10.16569,0.7957 -0.2794,0.0381 -1.07061,0.12106 -1.75825,0.1844 -1.56166,0.14385 -1.54902,0.033 0.1636,-1.43505 3.06397,-2.62639 4.36418,-3.93757 5.39039,-5.43588 1.78064,-2.59981 2.74334,-5.12705 2.48256,-6.51713 -0.0661,-0.35247 -0.37443,-0.90766 -0.71081,-1.27999 -0.88023,-0.9743 -1.86117,-1.15482 -4.24963,-0.78205 -1.00422,0.15673 -2.13066,0.36135 -2.50319,0.45471 -0.92558,0.23197 -3.00031,0.46799 -3.25967,0.37082 -0.361,-0.13526 -0.245,-0.32597 0.81093,-1.33316 1.19285,-1.13778 2.14685,-2.89429 2.30553,-4.24494 0.14046,-1.19561 -0.43757,-2.22156 -1.5449,-2.74207 -0.42197,-0.19835 -0.76723,-0.4555 -0.76722,-0.57144 0,-0.11594 0.34155,-0.6299 0.75901,-1.14213 0.41745,-0.51223 0.94503,-1.15993 1.17239,-1.43933 0.31784,-0.39059 0.51838,-1.05594 0.86765,-2.87867 0.70875,-3.69879 0.8157,-4.00039 1.80086,-5.0783 1.47734,-1.61645 3.10466,-2.23205 6.01461,-2.27527 1.03608,-0.0154 2.40541,0.0598 3.04297,0.16717 2.27846,0.38358 6.9734,1.7637 7.8055,2.2945 0.50345,0.32114 0.48387,0.71096 -0.0423,0.84303 -0.23284,0.0584 -0.42334,0.17264 -0.42334,0.25378 0,0.44075 2.6424,1.29003 5.49656,1.76662 2.19587,0.36667 2.29168,0.39499 2.19429,0.64875 -0.15798,0.4117 -1.38668,0.96265 -2.86945,1.28668 -0.80525,0.17597 -1.50907,0.36493 -1.56407,0.41992 -0.16681,0.16683 0.78187,1.04512 1.62388,1.50341 1.62946,0.88686 3.05301,1.14601 6.21013,1.13052 1.58326,-0.008 3.06146,-0.0294 3.28486,-0.0481 0.59092,-0.0495 0.59609,0.22415 0.0206,1.09292 -0.79344,1.19788 -2.38556,2.20179 -5.89867,3.71942 -0.40178,0.17357 -0.68777,0.38474 -0.63553,0.46926 0.35311,0.57134 3.52857,0.71879 7.8972,0.3667 1.54322,-0.12437 3.80795,-0.18995 5.03276,-0.14572 2.1023,0.0759 2.28801,0.11143 3.3189,0.63468 0.60059,0.30485 2.26016,1.43765 3.68791,2.51733 9.42113,7.12434 11.88366,8.65896 17.89479,11.15182 7.89174,3.27278 7.72693,3.23062 13.4878,3.45045 5.55109,0.21184 9.4562,0.47561 10.65408,0.71965 l 1.00208,0.20415 1.00215,1.60866 c 1.983,3.18311 2.71188,5.05488 2.93736,7.54312 0.0911,1.00561 0.0597,1.33387 -0.15997,1.66907 -0.3621,0.55263 -3.07655,1.89852 -4.36631,2.16492 -1.13978,0.23542 -1.36495,0.41355 -2.60272,2.05903 -1.36107,1.80938 -2.93089,2.35759 -4.9469,1.72754 z m 13.3289,-1.88721 c -0.32597,-0.14132 -0.95462,-0.48918 -1.397,-0.77302 -1.07078,-0.68704 -1.07672,-1.12451 -0.0289,-2.12849 1.16192,-1.11331 1.38417,-1.00512 2.07925,1.01212 0.73954,2.14627 0.6352,2.44803 -0.65334,1.88939 z M 44.066838,83.449137 c -3.15283,-0.50706 -5.78848,-2.5977 -8.156019,-6.46949 -0.37766,-0.61761 -1.536142,-2.81119 -2.574406,-4.87461 -1.03826,-2.06342 -2.152935,-4.19685 -2.477056,-4.74096 -2.1419,-3.59562 -7.25337,-6.82913 -10.395419,-6.57612 -1.968365,0.1585 -2.768179,0.53055 -7.190911,3.34499 -2.046593,1.30237 -3.3533302,1.7589 -4.6640476,1.62946 -2.1944501,-0.21671 -3.0674471,-0.81695 -4.766448,-3.27726 -1.225928,-1.77526 -2.147147,-2.61196 -3.156731,-2.86711 -0.91879902,-0.2322 -0.03921,-0.96989 1.876243,-1.57354 3.3344859,-1.05087 6.9299173,-0.9673 14.4268576,0.33533 9.150826,1.59 10.251334,1.8927 12.629952,3.47401 1.521792,1.01168 2.476325,1.95065 4.146328,4.07871 2.268238,2.89038 3.666917,5.04192 5.544807,8.52936 1.22642,2.27758 1.757,3.00154 2.52161,3.44059 1.55895,0.89518 3.90149,1.21967 6.741521,0.93383 1.30853,-0.13169 4.15644,-0.78529 4.99549,-1.14646 0.18626,-0.0802 0.605359,-0.24116 0.931329,-0.35775 1.027748,-0.36757 3.428278,-1.54547 4.571998,-2.24339 1.0692,-0.65244 5.11499,-3.60201 6.05371,-4.41343 0.25609,-0.22136 1.57052,-1.3428 2.92096,-2.49209 1.35043,-1.14929 2.56682,-2.19875 2.7031,-2.33213 0.61624,-0.60318 5.1748,-4.33554 6.77956,-5.55084 3.73664,-2.82977 7.07669,-4.57644 10.75267,-5.62306 1.96768,-0.56024 2.11139,-0.57671 2.23444,-0.25606 0.15855,0.4132 -0.73836,1.10833 -2.62546,2.0348 -2.9709,1.45856 -5.20294,3.30622 -12.13965,10.04912 -5.11193,4.96911 -8.05533,7.69205 -10.1295,9.3708 -4.64817,3.76206 -9.94832,6.45957 -14.341597,7.29915 -1.65457,0.3162 -5.939301,0.47904 -7.213331,0.27415 z m 209.839182,-3.30238 c -0.46521,-0.79381 -0.55875,-1.35777 -0.25625,-1.54474 0.22389,-0.13836 2.83784,0.25123 2.95474,0.44039 0.27248,0.44087 -1.22941,1.85417 -1.97037,1.85417 -0.16241,0 -0.48091,-0.328 -0.72812,-0.74982 z m -20.84409,-8.39133 c -4.33781,-0.33945 -7.99537,-1.94799 -15.40933,-6.77676 -1.6764,-1.09185 -4.0005,-2.57886 -5.16467,-3.30447 -2.93889,-1.83177 -4.91066,-3.39875 -4.91066,-3.90256 0,-0.11632 0.45916,-0.23845 1.143,-0.30401 1.30991,-0.12559 2.1316,-0.34119 4.59604,-1.20592 2.49398,-0.87509 3.17702,-0.92982 4.19866,-0.33642 1.0639,0.61795 2.20873,1.50553 4.7943,3.71695 3.92567,3.35762 5.53041,4.39144 7.66661,4.9391 2.09579,0.5373 4.04572,0.0572 7.0979,-1.74757 2.76133,-1.6328 3.99105,-2.25719 4.4454,-2.25719 1.02611,0 3.22743,1.47503 5.65857,3.79162 1.33368,1.27085 1.42065,1.55972 1.10586,3.67324 -0.28417,1.90797 -0.42252,2.29181 -0.87049,2.41522 -0.36713,0.10114 -3.92284,0.6824 -6.30785,1.03115 -2.10643,0.30801 -5.90996,0.43456 -8.04334,0.26762 z m 16.47473,-2.05647 c -0.16005,-0.42558 0.0714,-2.2042 0.29815,-2.29122 0.73157,-0.28072 2.76418,1.82251 2.13632,2.21054 -0.0774,0.0479 -0.63722,0.13788 -1.24394,0.20004 -0.85811,0.0879 -1.12254,0.0614 -1.19053,-0.11936 z m -1.68427,-6.92818 c -0.94148,-0.98969 -0.93862,-0.99397 0.88515,-1.32246 0.76341,-0.13749 1.51173,-0.001 1.51173,0.27498 0,0.0779 -0.22693,0.49946 -0.50428,0.93679 -0.63632,1.00338 -1.02196,1.02593 -1.8926,0.11069 z"
         id="path874"
         sodipodi:nodetypes="csssccccsscsscccsssccsssssssscccsscsssssscssscscsscccssscssscsssssssscsssscssssssscsssssccssscscssssscsssscssssscsccsssssssssssssscsssssssssssssssssssssssssscssssscsssssscsccscsssssssssssssscsssscccsscccssssssssssscssscsssssccscssssccssssscsssssssscscssssssssscsscscssscssccsssscsssssssssssssssssscscsssssscscssssssssscsssssccsssssscsscssssscssssssccssscssssssscssssssssssssssssssssssscsssssss" />
      <path
         style="fill:#00aaff;fill-opacity:1;stroke:#00aaff;stroke-width:0.454606;stroke-opacity:1"
         d="m 126.49573,461.43418 c -0.62905,-0.49484 -2.50811,-2.82447 -4.17568,-5.17696 -3.1998,-4.51408 -4.72785,-5.67127 -8.8167,-6.67688 -2.85421,-0.70196 -3.26151,-1.96978 -3.26151,-10.15236 v -6.56926 l -2.08369,-2.4238 c -3.02074,-3.51379 -3.93756,-5.54598 -4.16993,-9.24288 -0.39559,-6.29366 1.90875,-12.28579 7.39065,-19.21843 3.28603,-4.15565 5.38047,-5.75013 8.44499,-6.42907 1.14456,-0.25358 8.10002,-0.67246 15.45658,-0.93084 7.35657,-0.25839 15.38063,-0.77342 17.83125,-1.14453 9.12659,-1.38207 14.19068,-4.07125 18.69742,-9.92889 7.0125,-9.11449 9.5547,-12.10555 18.35274,-21.59317 5.17549,-5.58114 9.98638,-11.00231 10.69087,-12.04705 1.26786,-1.8802 1.27769,-1.94882 0.96688,-6.74797 -0.27285,-4.21287 -0.18813,-5.26294 0.64632,-8.01017 1.77435,-5.84167 5.13973,-9.7847 13.47171,-15.78408 5.01959,-3.61431 6.20992,-4.08241 8.01176,-3.15064 1.54029,0.79651 7.9505,7.01666 13.00711,12.62145 l 3.21035,3.55838 19.93509,1.78198 c 25.59644,2.28805 35.63945,2.87068 43.80187,2.5411 9.02617,-0.36446 20.47169,-2.71692 23.07776,-4.74331 l 1.02939,-0.80042 -3.2229,-12.72207 c -6.17103,-24.35957 -8.97097,-41.24595 -9.39554,-56.66432 -0.56158,-20.39326 2.50348,-29.65715 12.46329,-37.66942 10.25866,-8.25266 46.6358,-29.83685 62.90022,-37.32151 16.09271,-7.40564 28.51524,-11.3381 69.30478,-21.93901 34.94895,-9.08298 58.51327,-13.93154 84.10203,-17.30471 13.46773,-1.77535 18.52713,-2.03938 48.41549,-2.52666 37.0378,-0.60384 38.97233,-0.80838 47.55592,-5.02816 4.82832,-2.37366 6.36661,-3.58964 5.94179,-4.69678 -0.35605,-0.92786 -6.77472,-5.43667 -10.16517,-7.14058 -2.47973,-1.2462 -3.09413,-1.37675 -5.22796,-1.11092 -4.35398,0.54241 -14.90265,2.55731 -29.01247,5.54169 -24.73263,5.2312 -27.22396,5.59692 -38.18687,5.60565 -7.95294,0.006 -11.04146,-0.45081 -14.45203,-2.13906 -3.9195,-1.94016 -3.70123,-2.68201 0.9037,-3.0714 15.04612,-1.27227 26.20437,-5.33696 33.09037,-12.05404 2.86411,-2.79384 6.32825,-7.92207 5.74521,-8.5051 -0.14751,-0.14754 -1.69204,-0.0331 -3.43227,0.25428 -3.64166,0.6014 -6.39839,0.67744 -6.39839,0.17647 0,-0.19033 1.53884,-2.12768 3.41964,-4.30522 3.88946,-4.50313 11.44519,-11.362955 13.93575,-12.652212 2.49087,-1.289429 7.21431,-2.456979 18.33115,-4.531131 11.8712,-2.214897 14.13791,-2.815463 17.69265,-4.687651 2.67504,-1.408868 7.08335,-5.254867 7.08335,-6.179822 0,-0.78554 -3.03208,-0.557901 -9.09211,0.682609 -4.28616,0.877398 -7.63756,1.222943 -13.63817,1.406177 -7.26078,0.221711 -8.77016,0.122093 -17.28233,-1.140628 -11.91585,-1.767629 -16.57296,-2.091131 -21.30622,-1.480023 -4.68394,0.604752 -7.14577,1.789936 -14.12178,6.798617 -7.2674,5.217894 -10.33791,6.664153 -14.10712,6.644673 -1.9678,-0.01018 -3.49945,-0.295521 -4.55562,-0.848735 -1.69547,-0.888076 -3.63684,-2.49888 -3.63684,-3.017576 0,-0.172477 0.97172,-0.678221 2.15937,-1.123866 3.39082,-1.272346 7.44746,-3.392531 9.43307,-4.930143 1.00013,-0.774484 6.25282,-5.683024 11.67263,-10.907869 10.68596,-10.301548 12.70895,-11.957508 17.19482,-14.075011 2.78478,-1.314528 3.25598,-1.392793 8.1829,-1.359134 5.31852,0.03632 10.78502,0.793073 17.72962,2.454352 6.70143,1.603098 11.00481,2.226953 15.36612,2.227594 3.98907,4.55e-4 4.74767,-0.17014 13.41086,-3.018294 l 9.18258,-3.018917 6.36448,-0.02719 c 3.50046,-0.01496 10.07756,0.348446 14.61575,0.807534 11.54216,1.167614 15.24642,0.559856 19.67105,-3.227458 2.014,-1.723905 3.21815,-3.637758 3.21815,-5.11484 0,-1.646392 -2.70081,-4.091981 -6.54018,-5.922178 -7.07739,-3.373717 -12.06714,-4.084538 -28.8054,-4.103503 -7.49349,-0.0085 -12.388,-0.184327 -12.388,-0.445041 0,-0.866722 4.47555,-5.774321 7.5375,-8.265145 5.09822,-4.147281 7.1924,-4.990045 13.5888,-5.468581 6.75925,-0.505679 11.90939,-0.0592 27.43321,2.378264 14.30071,2.245417 19.14281,2.581786 23.56703,1.637144 7.32001,-1.562933 12.8847,-5.687658 12.8847,-9.550531 0,-1.381392 -2.92998,-4.11708 -5.85423,-5.466023 -1.97717,-0.912058 -2.81346,-0.969413 -14.14841,-0.970348 -6.62588,-5.45e-4 -15.66594,0.100711 -20.08902,0.225016 -6.2456,0.175523 -8.17504,0.09359 -8.63751,-0.366794 -1.93239,-1.9235542 7.2886,-4.5222777 25.08968,-7.070965 14.33944,-2.0530625 17.27001,-2.2055828 38.20105,-1.9881527 18.18668,0.1889217 20.12339,0.2845066 24.30721,1.1996735 11.00919,2.4081285 19.33747,6.2019772 24.49956,11.1604342 5.17805,4.973812 7.48813,9.519073 8.4653,16.65613 0.27513,2.009302 0.61881,3.962303 0.76374,4.340002 0.38682,1.00803 2.12519,1.526288 5.11954,1.526288 6.10294,0 14.23902,2.359463 21.32745,6.184952 7.48399,4.038972 21.50953,13.367933 26.83905,17.851771 2.69086,2.263876 4.57683,4.992837 9.59541,13.884276 1.82265,3.229218 4.0158,6.648202 4.87364,7.597736 1.97535,2.186471 9.4873,5.94445 17.99774,9.003658 3.45655,1.24251 6.93428,2.637463 7.7283,3.099888 1.32408,0.771147 1.45501,1.05833 1.58107,3.467808 0.16234,3.104085 -1.34604,14.352485 -2.65767,19.818645 -2.23725,9.32365 -8.09321,17.30478 -14.99362,20.43484 -3.06813,1.39171 -3.17069,1.3283 -3.17069,-1.96006 0,-4.22466 -1.15838,-7.37157 -3.62557,-9.8494 -5.03153,-5.05317 -14.23484,-3.8963 -19.83508,2.49332 -2.57729,2.94056 -5.81504,9.4619 -6.99147,14.08203 -2.14114,8.4085 -0.42983,19.42325 3.50406,22.55368 1.14838,0.91386 1.61721,0.98263 5.17318,0.75878 4.67639,-0.29438 9.07875,-1.68263 15.40777,-4.85867 2.49269,-1.2509 4.76403,-2.27436 5.04744,-2.27436 0.59048,0 0.36791,2.64524 -0.81952,9.73948 -0.94408,5.6403 -1.76805,6.68315 -7.53782,9.54013 -10.23412,5.06755 -20.59922,5.33762 -27.41844,0.71439 -4.23883,-2.87382 -11.37014,-9.37702 -27.45026,-25.03255 -16.45932,-16.02466 -25.98721,-25.81561 -30.05739,-30.88716 -4.51496,-5.62571 -6.22505,-10.76207 -5.71984,-17.17955 0.36741,-4.66722 1.16529,-6.7958 4.91001,-13.099016 1.74037,-2.929478 3.105,-5.608137 3.03254,-5.952578 -0.099,-0.470357 -0.85316,-0.265166 -3.0294,0.824268 -4.19042,2.09775 -9.03379,7.088369 -11.26695,11.609526 l -1.74668,3.53632 0.0114,6.15865 c 0.0109,6.06319 0.0359,6.21145 1.59112,9.56405 2.61503,5.63655 6.29215,10.08926 16.51887,20.00294 26.77404,25.95448 50.77644,50.59599 53.676,55.10522 0.95204,1.48059 0.63704,2.07825 -2.47342,4.6923 -4.31888,3.62967 -12.21097,6.39111 -19.72483,6.90172 l -4.04449,0.27485 0.24794,-1.09448 c 0.13634,-0.60195 0.51512,-1.75152 0.8417,-2.55458 0.32659,-0.80307 0.44547,-1.60843 0.26422,-1.7897 -0.1813,-0.18127 -1.60403,-0.007 -3.16169,0.38618 -1.55771,0.39367 -6.82131,1.73835 -11.69695,2.98818 -17.65097,4.52468 -32.54949,6.55867 -52.8479,7.21493 -10.97509,0.35483 -10.5674,0.58751 -7.47517,-4.26624 2.32176,-3.6443 8.08271,-13.7251 9.22222,-16.13744 0.44142,-0.93448 0.68932,-1.8123 0.55094,-1.95072 -0.13843,-0.13841 -3.19252,0.18205 -6.78695,0.71213 -6.64233,0.97959 -23.10114,1.51551 -23.84683,0.77649 -0.82488,-0.81752 2.412,-2.96992 10.18144,-6.7703 4.97656,-2.43425 8.25459,-4.29178 8.14789,-4.61706 -0.28008,-0.85369 -4.7854,-1.56651 -14.88319,-2.35479 -19.29669,-1.50639 -26.03467,-2.76346 -24.53002,-4.57646 0.67355,-0.81154 0.24713,-2.0232 -0.712,-2.0232 -1.44797,0 -13.1416,-4.21023 -22.66209,-8.15936 -19.53153,-8.10166 -24.59866,-9.57026 -33.02054,-9.57026 -8.39789,0 -14.47005,1.88424 -19.77062,6.13496 -5.80063,4.65176 -8.25818,8.98109 -14.2867,25.16818 -2.2558,6.05707 -5.02271,12.79439 -6.14868,14.97182 -3.27239,6.32822 -7.08535,10.34318 -12.6289,13.29786 -1.46933,0.78314 -2.58984,1.6617 -2.49005,1.95237 0.1306,0.38039 2.14405,0.48323 7.18586,0.36702 10.19984,-0.23511 12.68458,0.67087 12.68458,4.62499 0,2.68425 -1.17261,6.47398 -2.79282,9.02617 -3.07264,4.84005 -7.79508,7.79251 -15.12046,9.45324 -6.82976,1.54838 -7.99923,1.92299 -7.99923,2.56237 0,0.86207 2.20679,1.90056 6.27732,2.95401 4.66567,1.20748 12.9223,1.18427 27.63457,-0.0777 12.58957,-1.07987 14.68394,-0.96919 16.13618,0.85271 0.90343,1.13346 0.95803,1.59649 0.73632,6.24725 -0.36314,7.61854 -2.59262,13.61698 -7.50563,20.19421 -3.6433,4.87739 -11.55889,12.56834 -16.02716,15.57231 l -3.83942,2.58119 -16.8204,0.30518 -16.82041,0.30517 -9.54672,3.40662 c -5.25069,1.87364 -11.75693,4.20109 -14.45831,5.17212 -7.804,2.8052 -8.75268,2.29407 -5.0329,-2.71161 3.27066,-4.4013 2.83254,-5.7523 -2.75762,-8.50354 -5.21296,-2.56561 -8.68405,-3.06828 -17.28881,-2.5037 -12.43652,0.81598 -26.53573,2.94441 -36.46707,5.5051 -5.51727,1.42257 -17.79455,5.31225 -18.55324,5.87803 -0.25003,0.18646 -1.03498,0.47787 -1.74433,0.64759 -2.47609,0.59242 -14.78024,6.52049 -18.06179,8.70206 -4.69938,3.12414 -10.80103,8.25809 -19.98556,16.81591 -9.07172,8.45271 -11.49067,10.4769 -11.71519,9.80333 -0.30408,-0.91224 8.77028,-26.09186 15.25279,-42.32359 5.68577,-14.23674 18.59817,-42.43979 23.36367,-51.03056 2.25052,-4.05701 2.54955,-4.88593 1.76257,-4.88593 -1.29894,0 -11.04429,13.69131 -16.82638,23.63949 -9.85764,16.96025 -20.63667,40.36903 -30.77177,66.82702 -10.62023,27.72439 -12.23312,31.43659 -16.3412,37.61066 -1.79648,2.69994 -3.38782,4.46225 -5.34214,5.91611 -7.1297,5.30391 -23.29203,11.23622 -40.86349,14.99874 l -5.56213,1.191 -51.59773,0.25936 -51.59773,0.25936 -4.31875,1.76532 c -2.37531,0.97092 -5.87639,2.54467 -7.78018,3.49721 -3.3623,1.6823 -3.55666,1.87259 -6.78706,6.64489 -8.74405,12.91766 -15.48749,21.10535 -26.34252,31.98432 -8.94821,8.96795 -20.19892,18.80608 -25.76472,22.52986 -5.39698,3.61082 -8.94535,4.90499 -21.06439,7.68261 -1.87525,0.42978 -5.50834,1.57657 -8.07353,2.54833 -2.56519,0.97181 -4.83905,1.76692 -5.053,1.76692 -0.21396,0 -0.9037,-0.40487 -1.53276,-0.89966 z M 833.34479,90.013598 c 2.14619,-3.243115 3.22393,-10.525477 1.77246,-11.976919 -0.91794,-0.917972 -5.85336,-2.515019 -10.12706,-3.277006 -4.23234,-0.754618 -15.31598,-0.856963 -17.31561,-0.15989 -0.78738,0.274491 -1.43165,0.759869 -1.43165,1.078616 0,1.171245 8.66579,8.203975 14.40632,11.691463 3.37022,2.047503 8.98037,4.429204 10.47688,4.447816 0.68964,0.0086 1.40296,-0.571481 2.21866,-1.80408 z"
         id="path44"
         transform="scale(0.26458333)" />
      <path
         style="fill:#00aaff;fill-opacity:1;stroke:#00aaff;stroke-width:0.454606;stroke-opacity:1"
         d="m 127.18314,461.58056 c -0.30855,-0.12479 -2.18777,-2.33417 -4.17603,-4.90972 -3.80438,-4.92813 -5.15589,-6.02196 -8.96837,-7.25842 -1.77337,-0.57514 -2.4528,-1.05671 -2.80481,-1.98803 -0.50687,-1.34106 -1.06786,-8.35194 -0.99441,-12.42756 0.043,-2.38446 -0.0857,-2.71338 -1.86675,-4.77121 -2.96298,-3.42345 -4.03109,-6.12294 -4.03636,-10.20124 -0.008,-5.97874 2.24503,-11.40883 7.47926,-18.02825 3.13042,-3.95887 5.6832,-5.80839 8.6548,-6.27052 2.21025,-0.34373 24.4215,-1.5697 28.07189,-1.54944 1.43769,0.008 2.61584,-0.14966 2.61812,-0.35029 0.002,-0.20063 1.21329,-0.40535 2.69115,-0.45494 3.08584,-0.10354 8.70789,-1.86013 11.51956,-3.59924 2.70808,-1.67505 4.9444,-3.89569 8.41662,-8.35765 4.55746,-5.85654 8.74995,-10.72442 17.56303,-20.39236 11.50666,-12.6228 10.45119,-10.78288 10.72132,-18.68977 0.22491,-6.58314 0.24544,-6.69 1.94564,-10.12991 1.13621,-2.29883 2.64499,-4.40324 4.45367,-6.21193 3.18934,-3.18934 9.35936,-7.90786 12.11239,-9.26294 1.70712,-0.84027 2.04898,-0.87458 3.10161,-0.31122 1.38321,0.74027 9.2471,8.3423 13.43738,12.98992 l 2.90888,3.22636 19.32073,1.65769 c 31.3275,2.68786 34.63256,2.82986 50.42201,2.16646 0.60352,-0.0254 2.85382,-0.35109 5.00066,-0.72385 8.28484,-1.43849 13.22277,-3.23808 13.22277,-4.81892 0,-0.47705 -1.21718,-5.72655 -2.70484,-11.66554 -3.61579,-14.43477 -5.23019,-21.81482 -6.81803,-31.16783 -2.227,-13.11791 -2.52418,-16.60714 -2.52418,-29.63696 0,-13.83233 0.41656,-16.78072 3.23919,-22.92699 3.63465,-7.91443 9.05027,-12.436 31.08353,-25.95203 23.18844,-14.22467 42.17755,-23.94483 57.53363,-29.45037 21.54184,-7.72328 80.80338,-22.86822 110.46644,-28.2309 27.13183,-4.90507 37.40551,-5.86855 70.35553,-6.59802 30.59891,-0.67743 37.71417,-0.95559 41.63714,-1.62771 6.24082,-1.06924 15.60152,-5.68039 15.86346,-7.81446 0.11229,-0.91485 -0.46833,-1.53685 -3.41563,-3.65891 -5.08495,-3.66118 -8.48103,-5.34891 -10.76324,-5.34891 -2.61967,0 -12.0991,1.73075 -31.41197,5.73519 -23.61131,4.89569 -25.62539,5.18309 -36.37345,5.19031 -9.63229,0.007 -12.13403,-0.37605 -15.79754,-2.41557 -2.84641,-1.58462 -2.66335,-1.67066 5.56892,-2.61722 16.08753,-1.84978 27.70484,-7.74373 33.6068,-17.05017 2.13633,-3.36862 2.11151,-3.39088 -3.45168,-3.09627 l -4.84955,0.25682 1.53411,-1.98001 c 2.17597,-2.80843 8.73675,-9.31355 12.47606,-12.370184 3.94434,-3.224263 5.2411,-3.641782 21.32932,-6.867358 13.07468,-2.621392 15.17432,-3.203924 18.43475,-5.114681 2.52202,-1.477991 6.38603,-5.033129 6.38603,-5.875531 0,-0.914975 -3.45909,-0.790586 -9.09302,0.326984 -3.3994,0.674321 -7.32288,1.016425 -13.63726,1.189085 -7.98928,0.218451 -9.73197,0.12047 -17.64501,-0.992118 -4.8291,-0.678981 -9.17626,-1.130931 -9.66037,-1.004337 -0.48406,0.126594 -0.88016,0.04473 -0.88016,-0.181874 0,-0.58706 -9.49021,-0.511 -12.36564,0.0991 -3.26606,0.692987 -5.97279,2.119225 -12.41036,6.539346 -3.0004,2.060104 -6.55737,4.300491 -7.90437,4.978644 -4.45349,2.24211 -9.19682,2.012171 -12.32261,-0.59736 l -1.58372,-1.322143 4.35822,-2.036606 c 2.39702,-1.120134 5.11631,-2.551746 6.04287,-3.181357 0.92655,-0.62961 6.12304,-5.340078 11.54781,-10.467706 11.89198,-11.240695 13.47555,-12.570694 17.57987,-14.764906 l 3.19378,-1.707431 6.59178,0.08312 c 5.44568,0.06867 7.73789,0.328957 13.18356,1.497007 11.98036,2.569698 13.95617,2.831028 19.77534,2.615609 5.22169,-0.193298 5.82509,-0.324075 14.09278,-3.054208 l 8.6375,-2.852264 7.9556,0.2758 c 4.37558,0.151689 10.20589,0.50824 12.95626,0.792328 5.75362,0.59431 12.56352,0.347828 14.54737,-0.526538 2.35072,-1.036051 5.59583,-3.583842 6.56774,-5.156391 1.35945,-2.19969 1.21025,-4.010743 -0.46875,-5.689754 -4.81068,-4.810664 -14.11732,-7.343675 -26.78354,-7.289735 -7.25564,0.0309 -19.09343,-0.484521 -19.09343,-0.831331 0,-0.759234 5.64047,-6.417796 8.68128,-8.709105 5.15632,-3.885393 6.90382,-4.333626 16.77663,-4.303137 7.08403,0.02187 9.54931,0.262215 22.50297,2.193799 12.44583,1.85586 15.26979,2.141372 19.54804,1.976376 4.13814,-0.159592 5.54955,-0.413567 8.1829,-1.472478 5.87505,-2.362428 8.86481,-5.201467 8.86481,-8.417853 0,-1.709593 -2.03677,-3.912552 -5.1635,-5.584783 -1.86407,-0.996963 -2.08787,-1.007017 -22.41583,-1.007017 -11.29308,0 -20.67278,-0.139819 -20.84371,-0.310709 -1.59757,-1.597098 7.7423,-4.0836401 25.56797,-6.8069199 9.40706,-1.4371405 9.52894,-1.4435558 30.98455,-1.6303368 24.30703,-0.2116039 27.73985,0.015397 35.94416,2.3768398 9.90554,2.8511092 16.90196,6.8839609 21.52189,12.4055099 3.72472,4.451669 5.05254,7.861843 6.45099,16.567628 0.41842,2.605048 1.06023,2.958987 6.02121,3.32064 11.32168,0.825343 21.66759,5.53005 39.4478,17.938532 9.81553,6.850078 10.74497,7.884256 17.67488,19.666236 2.16797,3.685946 4.63898,7.398914 5.49109,8.25104 1.84043,1.840407 9.77934,5.783197 17.06662,8.475944 2.87538,1.062495 6.22996,2.432803 7.45463,3.045129 l 2.2267,1.11332 -0.28281,5.299865 c -0.92817,17.39538 -5.32425,28.5344 -13.76278,34.87278 -2.46314,1.85015 -5.43571,3.28422 -5.88218,2.83777 -0.10133,-0.10132 -0.36655,-1.81399 -0.5894,-3.80595 -0.4742,-4.23821 -1.58539,-6.67106 -4.07381,-8.91921 -2.41054,-2.1778 -4.36517,-2.7479 -8.61527,-2.51277 -5.53019,0.30595 -9.2059,2.53284 -12.63645,7.65563 -3.54974,5.30083 -6.243,12.77442 -6.0513,16.79209 0.0543,1.13839 -0.0768,2.35375 -0.29126,2.7008 -0.22408,0.36255 -0.21067,0.69063 0.0314,0.77116 0.23181,0.0771 0.35351,1.11986 0.27045,2.31727 -0.28508,4.10875 2.26703,11.19202 4.45413,12.36254 1.10392,0.5908 7.74394,0.6102 7.74394,0.0226 0,-0.24218 0.29594,-0.32677 0.65763,-0.18798 1.05068,0.40319 5.50914,-1.08014 11.31927,-3.76594 2.96184,-1.36913 5.5075,-2.36695 5.65711,-2.21737 0.38714,0.38716 -0.73087,8.89558 -1.51652,11.54118 -0.91944,3.0961 -1.95926,4.23126 -5.6547,6.17315 -6.99888,3.67783 -14.2642,5.26689 -20.06579,4.3888 -6.85272,-1.03719 -9.69778,-3.1753 -29.89522,-22.46682 -14.5141,-13.86308 -31.24027,-30.86058 -35.17788,-35.74852 -1.51466,-1.88024 -3.48801,-4.95291 -4.38517,-6.82816 -1.60403,-3.35268 -1.63117,-3.5043 -1.62754,-9.09211 0.005,-6.4547 0.0503,-6.59939 4.79327,-15.041735 2.97035,-5.287131 3.32817,-6.578983 1.68118,-6.069734 -4.38553,1.356011 -10.92103,7.483812 -13.70054,12.845909 l -1.72454,3.32688 0.16566,6.67444 c 0.16479,6.64058 0.17397,6.69058 1.81005,9.85668 0.90444,1.75023 2.61471,4.51196 3.8006,6.13718 1.18593,1.62521 13.34671,14.10413 27.02402,27.73093 24.01045,23.92185 36.17828,36.58377 38.52364,40.08798 1.30808,1.95437 1.18052,2.31333 -1.6624,4.67768 -4.78763,3.98171 -11.62372,6.3427 -21.03069,7.2634 l -2.59443,0.25392 0.66236,-1.87725 c 0.9598,-2.72016 0.86579,-3.58137 -0.39092,-3.58137 -0.5793,0 -5.13104,1.0418 -10.11497,2.31512 -20.51408,5.24103 -34.79069,7.36902 -54.0676,8.05896 -9.4998,0.34001 -11.59245,0.25913 -11.59245,-0.44808 0,-0.25977 1.61299,-3.16197 3.58443,-6.44932 4.69344,-7.82619 7.78071,-13.59478 7.78071,-14.53823 0,-0.92348 -0.21225,-0.92532 -7.04638,-0.061 -7.217,0.91277 -23.41219,1.44491 -23.41219,0.76928 0,-0.80822 2.52111,-2.37656 10.45593,-6.50446 4.33366,-2.25449 7.50099,-4.17424 7.50099,-4.54644 0,-1.0493 -3.46959,-1.62989 -17.26169,-2.88847 -12.41255,-1.13269 -19.59136,-2.14823 -21.1743,-2.99539 -0.50879,-0.2723 -0.67532,-0.81492 -0.53775,-1.75228 0.18689,-1.27337 0.0761,-1.38892 -1.77996,-1.85747 -3.36995,-0.85069 -11.97936,-4.02047 -22.90917,-8.43462 -20.32909,-8.2102 -23.21307,-8.96412 -33.39541,-8.73021 -6.23224,0.14317 -7.43912,0.30173 -10.44566,1.37236 -4.2156,1.50117 -8.87694,4.64074 -11.87057,7.99524 -2.71808,3.04574 -6.06066,9.70425 -9.72592,19.37426 -3.95911,10.44524 -6.58128,16.51449 -8.61318,19.93624 -2.15119,3.62254 -6.62083,8.02426 -10.45388,10.29502 -4.70372,2.78653 -4.02981,3.16574 5.64865,3.17857 10.14793,0.0135 11.20817,0.57432 10.79584,5.711 -0.48702,6.06693 -4.38194,11.35071 -10.5088,14.25595 -2.03313,0.96407 -5.12859,2.09114 -6.87882,2.5046 -6.66179,1.57372 -7.95559,2.05674 -7.95559,2.97007 0,0.91191 3.10431,2.3275 6.96242,3.17489 2.9753,0.6535 20.31,0.77188 20.31841,0.13876 0.005,-0.35968 8.9184,-0.77922 16.74303,-0.78805 4.46759,-0.005 4.74631,0.051 5.62424,1.13121 0.84234,1.03645 0.90408,1.5968 0.70119,6.36448 -0.26536,6.23436 -1.56539,10.61261 -4.7319,15.9359 -3.55079,5.96928 -12.14488,14.85315 -19.21554,19.86342 l -2.98967,2.1185 -17.04771,0.34416 -17.04771,0.34415 -13.33375,4.7915 c -13.78225,4.95266 -16.89751,5.83146 -16.89751,4.7667 0,-0.32707 0.85238,-1.90296 1.89419,-3.50198 3.15853,-4.8479 2.65453,-6.14424 -3.50493,-9.01518 -4.47819,-2.0873 -8.27868,-2.65269 -15.4063,-2.29195 -25.09279,1.26999 -50.12041,7.40701 -69.03588,16.92829 -9.30564,4.68407 -12.68937,7.23876 -27.14386,20.4934 -9.29434,8.52282 -10.87264,9.8777 -11.16542,9.58493 -0.43164,-0.43164 7.47544,-22.63323 13.56342,-38.08353 5.8782,-14.91793 16.53112,-38.6043 23.0869,-51.33286 1.98542,-3.85484 3.60985,-7.29643 3.60985,-7.64797 0,-2.44589 -3.9079,2.07838 -11.08931,12.83837 -5.66403,8.48647 -8.50804,13.45958 -14.81881,25.91251 -8.4086,16.59258 -13.91379,29.32382 -24.76893,57.2803 -12.37238,31.86404 -14.57287,35.33803 -25.91354,40.91062 -9.4108,4.62429 -18.38192,7.6122 -32.51474,10.82929 l -7.04639,1.604 -51.77448,0.31169 -51.77449,0.31169 -4.3324,1.80309 c -6.14377,2.55697 -10.16118,4.65632 -11.28346,5.89632 -0.53207,0.58788 -2.96915,3.93288 -5.41573,7.43335 -11.14911,15.95165 -25.43612,31.33694 -41.80507,45.01874 -9.44719,7.89632 -13.05694,9.75337 -25.06905,12.89689 -4.71446,1.23378 -10.27344,2.87408 -12.35326,3.64523 -3.79138,1.40564 -4.37535,1.52461 -5.41702,1.10333 z M 833.19104,90.503531 c 1.50829,-1.7925 2.69845,-6.428331 2.51879,-9.811047 -0.14175,-2.669525 -0.18262,-2.746067 -1.91716,-3.592897 -4.16433,-2.033087 -7.87218,-2.66488 -16.92192,-2.88335 -9.12521,-0.220297 -10.62782,0.01718 -10.62782,1.679659 0,1.242114 8.83954,8.439379 14.30958,11.651062 3.73404,2.192399 8.5554,4.227123 10.08506,4.256118 1.04977,0.01991 1.73791,-0.330326 2.55347,-1.299545 z"
         id="path4155"
         transform="scale(0.26458333)" />
      <path
         style="fill:#00aaff;fill-opacity:1;stroke:#00aaff;stroke-width:0.454606;stroke-opacity:1"
         d="m 164.96059,314.85189 c -7.32037,-1.68245 -12.15441,-4.52901 -18.59213,-10.94808 -7.51634,-7.49456 -8.87078,-9.64857 -21.58206,-34.32272 -4.05747,-7.87604 -8.40055,-15.80156 -9.65129,-17.61228 -4.55593,-6.59563 -13.88126,-14.42261 -21.940973,-18.4156 -6.100616,-3.02241 -8.975655,-3.75084 -14.77468,-3.74339 -7.58033,0.01 -10.727618,1.27435 -24.321397,9.77267 -12.573678,7.86058 -15.0613,8.85148 -21.366461,8.51096 -7.757781,-0.41896 -10.619952,-2.28664 -17.445068,-11.38355 -5.4411583,-7.25229 -7.6470385,-9.44118 -11.1046599,-11.01914 -1.4504666,-0.66195 -2.5598443,-1.43948 -2.4652837,-1.72784 0.2726634,-0.83149 2.9156436,-2.45159 5.7129287,-3.50193 10.0889499,-3.78825 21.7494509,-4.46383 38.9402499,-2.25609 16.076934,2.06468 46.021096,7.60616 52.961546,9.80108 10.325778,3.26554 18.227958,9.20058 27.276748,20.4866 8.36918,10.43837 13.20821,17.77185 21.1824,32.10162 6.84635,12.30301 8.23067,13.79638 14.83625,16.00499 11.47516,3.83679 29.85195,1.76298 46.09828,-5.20215 14.54806,-6.23704 26.62618,-14.57586 48.86317,-33.73546 32.48595,-27.9902 44.74564,-37.16198 58.8173,-44.00272 9.76964,-4.74937 24.41316,-9.4998 25.2266,-8.18364 0.20597,0.33327 0.26997,0.87832 0.14222,1.21123 -0.40273,1.04949 -4.24806,3.58143 -10.52301,6.92882 -12.03812,6.42177 -17.19829,10.70336 -44.39517,36.8364 -28.76341,27.63829 -35.85164,34.00375 -46.24548,41.52991 -16.55779,11.98947 -34.39969,20.16455 -48.90275,22.40702 -6.41613,0.99207 -23.18297,1.28249 -26.74728,0.46329 z"
         id="path4194"
         transform="scale(0.26458333)" />
      <path
         style="fill:#00aaff;fill-opacity:1;stroke:#00aaff;stroke-width:0.454606;stroke-opacity:1"
         d="m 917.67054,353.21587 c -3.04213,-0.63471 -7.37542,-2.82842 -12.71672,-6.4378 -11.31401,-7.64542 -13.69318,-9.15035 -17.7911,-11.25369 -7.79437,-4.00061 -9.02588,-4.27056 -18.05374,-3.95735 l -7.82512,0.27148 0.0418,-2.08452 c 0.0264,-1.31546 -0.18945,-2.23102 -0.58508,-2.4816 -0.94564,-0.59895 -6.15745,-0.47494 -9.49174,0.22583 -4.66653,0.98077 -7.44355,1.23625 -8.18189,0.75271 -0.97272,-0.63703 -0.0241,-2.21063 5.49653,-9.11784 5.04845,-6.31643 6.81497,-9.46411 7.12559,-12.69671 0.27778,-2.89092 -0.40371,-3.99763 -3.22856,-5.24302 -2.79018,-1.23011 -9.0792,-3.15268 -12.57681,-3.84476 -7.49785,-1.48361 -40.68544,-2.27116 -96.72868,-2.29539 l -32.85658,-0.0142 -3.12473,1.57358 c -2.4373,1.22741 -3.85995,2.39849 -6.46677,5.32326 -5.01976,5.632 -7.91963,8.55975 -8.47822,8.55975 -0.27564,0 -1.27685,-0.97172 -2.22491,-2.15938 -0.94806,-1.18766 -3.36196,-3.80282 -5.36424,-5.81148 -4.04165,-4.05453 -7.46375,-6.08651 -13.86912,-8.23521 l -3.86415,-1.29625 -17.50231,0.0166 -17.50231,0.0166 -12.88908,1.68812 c -13.24586,1.73487 -16.88759,2.00625 -16.88759,1.25846 0,-0.23633 3.22202,-3.27706 7.16004,-6.75718 8.82795,-7.80146 15.06781,-14.24767 18.12623,-18.72565 7.42072,-10.865 10.9367,-21.81328 8.51142,-26.50335 -3.44857,-6.66891 -8.12732,-7.88303 -21.29603,-5.52624 -3.7505,0.67122 -8.35338,1.49303 -10.22863,1.82623 -4.32138,0.76784 -8.6375,0.83593 -8.6375,0.13626 0,-0.28476 1.48988,-2.07718 3.31084,-3.98317 3.69638,-3.86895 6.31377,-7.86965 7.66642,-11.7182 2.53911,-7.22421 1.03641,-11.87169 -4.92667,-15.23705 -1.32756,-0.74923 -2.41375,-1.63905 -2.41375,-1.97738 0,-0.33833 1.61146,-2.63791 3.58103,-5.11016 5.14436,-6.45736 4.7247,-5.41455 7.35742,-18.28199 2.23484,-10.92282 3.26043,-13.25079 7.67038,-17.41091 3.33898,-3.14983 7.08529,-5.21738 11.39514,-6.28887 1.68542,-0.41902 5.38954,-0.62162 11.36514,-0.62162 9.7021,0 12.31122,0.40261 23.86679,3.68287 11.14675,3.16422 16.5931,5.46575 16.5931,7.01197 0,0.23694 -0.73402,0.73749 -1.63116,1.11234 -0.92139,0.38498 -1.54975,0.93162 -1.44407,1.25626 0.5849,1.79681 9.07673,4.53303 20.69487,6.66825 4.06505,0.74709 7.60386,1.4899 7.86401,1.65068 1.53771,0.95035 -3.40338,3.44614 -10.5837,5.34593 -3.02923,0.80148 -5.58817,1.70063 -5.68652,1.9981 -0.30947,0.936 3.38553,4.06372 7.04436,5.96288 6.16203,3.19847 7.28589,3.37666 22.72463,3.60307 15.18326,0.22266 14.78934,0.13007 12.87927,3.02741 -2.94326,4.46455 -8.73446,8.49694 -18.67549,13.0037 -6.04825,2.74196 -7.14129,3.51137 -6.25189,4.40076 1.70618,1.70619 14.23755,2.14608 30.80059,1.08122 5.12568,-0.32954 13.00172,-0.51671 17.50232,-0.41592 8.04284,0.1801 8.23459,0.20756 11.20299,1.60441 4.12134,1.93939 7.89628,4.53439 24.02894,16.51813 32.32194,24.00955 38.31521,27.45352 70.00925,40.23003 18.30329,7.37843 19.6801,7.6678 41.08108,8.63425 25.82571,1.16625 36.49841,1.96986 40.97585,3.0853 2.21295,0.5513 2.25557,0.59721 5.5811,6.01081 6.59112,10.72964 9.62227,17.78899 10.83355,25.23061 0.97835,6.01061 0.85341,8.30512 -0.54255,9.96413 -1.44736,1.72009 -9.93511,6.03902 -14.42308,7.33908 -5.85252,1.69535 -6.49312,2.11105 -10.0652,6.53146 -1.83272,2.26796 -3.91712,4.67147 -4.63202,5.34114 -3.18333,2.98191 -8.50118,4.44901 -12.843,3.54315 z"
         id="path4233"
         transform="scale(0.26458333)" />
      <path
         style="fill:#00aaff;fill-opacity:1;stroke:#00aaff;stroke-width:0.454606;stroke-opacity:1"
         d="m 880.56734,270.9325 c -15.32161,-1.26254 -29.5602,-7.45593 -55.60041,-24.18461 -3.92235,-2.51978 -11.92858,-7.64096 -17.79162,-11.38039 -5.86303,-3.73942 -12.20478,-7.92686 -14.09277,-9.30542 -3.42992,-2.50443 -8.20607,-6.84885 -8.20607,-7.4643 0,-0.47636 1.06278,-0.73088 6.23048,-1.49211 2.93444,-0.43226 7.63659,-1.67947 12.79535,-3.39387 10.82484,-3.59741 12.95948,-4.00806 15.8224,-3.04383 2.73015,0.91952 8.19757,4.81815 16.31567,11.63414 15.46748,12.98657 21.30546,17.3179 26.62354,19.75259 3.6756,1.68275 9.18948,2.97769 12.67907,2.97769 6.22767,0 11.69692,-2.07374 23.86679,-9.04941 12.86288,-7.3729 13.59603,-7.58985 17.96409,-5.31594 5.80919,3.02412 16.48799,11.68617 19.86431,16.11283 1.34879,1.76839 1.49498,2.25992 1.49498,5.02683 0,3.6656 -1.21672,11.15244 -2.08796,12.84782 -0.75465,1.46851 -0.9067,1.50451 -16.77817,3.97166 -15.92654,2.47572 -28.23403,3.20168 -39.09968,2.30632 z"
         id="path4272"
         transform="scale(0.26458333)" />
      <path
         style="fill:#00aaff;fill-opacity:1;stroke:#00aaff;stroke-width:0.454606;stroke-opacity:1"
         d="m 218.75882,506.87543 c -1.44874,-0.22945 -6.05162,-1.83338 -10.22862,-3.56429 -4.177,-1.73091 -8.75851,-3.50948 -10.18114,-3.95237 -2.85405,-0.88853 -2.62114,-0.44281 -3.33808,-6.38793 -0.34948,-2.89805 -1.42038,-4.69023 -3.93448,-6.5845 l -1.96059,-1.47723 0.12467,-10.26477 c 0.0686,-5.64563 0.20761,-10.49972 0.30897,-10.78687 0.10137,-0.28714 3.82985,-1.68216 8.28553,-3.10003 4.45568,-1.41787 12.26371,-3.90658 17.35119,-5.53046 16.71071,-5.33394 21.56731,-8.05127 30.10675,-16.84515 7.8507,-8.08462 12.48909,-15.21099 22.65425,-34.80576 l 4.65775,-8.97846 4.3979,-0.002 c 6.50783,-0.003 32.05964,-0.82144 43.26669,-1.3851 8.35783,-0.42036 16.01107,-1.06911 29.89031,-2.53372 2.69342,-0.28423 2.84129,-0.24921 2.84129,0.67283 0,1.78531 -3.01445,4.39513 -8.74394,7.57027 -9.5111,5.2708 -24.03771,14.11095 -29.21804,17.7806 -9.11947,6.46006 -13.78222,11.56986 -25.67015,28.13136 -3.58951,5.00066 -7.79466,10.72869 -9.3448,12.72895 -3.59388,4.63747 -4.07493,5.62493 -4.7615,9.77402 -1.60566,9.70335 -5.41173,16.91462 -12.74533,24.14825 -7.58141,7.47807 -17.03288,12.50203 -27.71369,14.73132 -4.20692,0.87806 -12.51453,1.2205 -16.04494,0.66136 z"
         id="path4348"
         transform="scale(0.26458333)" />
      <path
         style="fill:#00aaff;fill-opacity:1;stroke-width:0.454606"
         d=""
         id="path5003-1"
         transform="scale(0.26458333)" />
      <path
         style="fill:#00aaff;fill-opacity:1;stroke:#00aaff;stroke-width:0.454606;stroke-opacity:1"
         d="m 943.25852,263.0282 c -0.2908,-0.75784 0.0447,-4.87158 0.56697,-6.95263 0.17322,-0.69015 0.59829,-1.04186 1.25916,-1.04186 1.9527,0 6.46653,4.13436 7.2621,6.6516 0.39847,1.26077 -0.30686,1.51982 -5.05111,1.8551 -3.25674,0.23016 -3.7776,0.16407 -4.03712,-0.51221 z"
         id="path5042"
         transform="scale(0.26458333)" />
      <path
         style="fill:#00aaff;fill-opacity:1;stroke:#00aaff;stroke-width:0.454606;stroke-opacity:1"
         d="m 937.36942,237.23815 c -1.36021,-1.28643 -2.47312,-2.60654 -2.47312,-2.93357 0,-0.76664 2.62637,-1.51584 6.36448,-1.81553 3.85982,-0.30944 4.54588,0.12378 3.53916,2.23489 -0.97886,2.0527 -3.45747,4.85318 -4.29537,4.85318 -0.36412,0 -1.77493,-1.05254 -3.13515,-2.33897 z"
         id="path5044"
         transform="scale(0.26458333)" />
      <path
         style="fill:#00aaff;fill-opacity:1;stroke-width:0.454606"
         d=""
         id="path5046-1"
         transform="scale(0.26458333)" />
      <path
         style="fill:#00aaff;fill-opacity:1;stroke:#00aaff;stroke-width:0.454606;stroke-opacity:1"
         d="m 964.03708,344.47735 c -4.30188,-2.2903 -6.4105,-4.07341 -6.4105,-5.42089 0,-1.17325 5.38723,-6.73981 6.5227,-6.73981 1.07059,0 2.33879,2.27326 3.93163,7.04751 1.63675,4.90586 1.78108,7.04527 0.47531,7.04527 -0.48956,0 -2.52317,-0.86944 -4.51914,-1.93208 z"
         id="path5159"
         transform="scale(0.26458333)" />
      <path
         style="fill:#00aaff;fill-opacity:1;stroke:#00aaff;stroke-width:0.454606;stroke-opacity:1"
         d="m 961.21704,304.53933 c -1.32448,-1.32448 -3.21092,-5.59351 -2.86735,-6.48884 0.20668,-0.53858 0.8547,-0.73394 2.39412,-0.72175 2.60105,0.0206 8.14457,1.06192 8.72083,1.63818 0.66591,0.66591 -1.52663,3.50929 -3.93727,5.10603 -2.53502,1.67913 -3.04266,1.73405 -4.31033,0.46638 z"
         id="path5198"
         transform="scale(0.26458333)" />
      <path
         style="fill:#00aaff;fill-opacity:1;stroke:#00aaff;stroke-width:0.454606;stroke-opacity:1"
         d="m 933.65037,368.33431 c -3.03918,-1.58223 -7.77966,-5.03996 -8.33672,-6.08083 -0.35049,-0.65491 0.0694,-1.21513 2.30598,-3.0764 1.50397,-1.25162 3.68387,-2.83204 4.84421,-3.51205 l 2.10972,-1.23637 0.80673,0.99627 c 1.24933,1.54286 2.96795,10.99414 2.39652,13.1793 -0.33875,1.29538 -1.23205,1.23695 -4.12644,-0.26992 z"
         id="path5237"
         transform="scale(0.26458333)" />
      <path
         style="fill:#00aaff;fill-opacity:1;stroke-width:0.454606"
         d=""
         id="path5584-9"
         transform="scale(0.26458333)" />
      <path
         style="fill:#00aaff;fill-opacity:1;stroke-width:0.454606"
         d=""
         id="path5777-2"
         transform="scale(0.26458333)"
         inkscape:label="path5777-2" />
      <path
         style="fill:#00aaff;fill-opacity:1;stroke-width:0.454606"
         d=""
         id="path5931-3"
         transform="scale(0.26458333)" />
    </g>
  </g>
  <g
     inkscape:groupmode="layer"
     id="layer2"
     inkscape:label="Layer 2"
     transform="translate(-1.2284194,-2.0091659)">
    <text
       xml:space="preserve"
       style="font-style:normal;font-variant:normal;font-weight:normal;font-stretch:normal;font-size:50.8px;line-height:1.25;font-family:'full blue font';-inkscape-font-specification:'full blue font, Normal';font-variant-ligatures:normal;font-variant-caps:normal;font-variant-numeric:normal;font-variant-east-asian:normal;fill:#00aaff;fill-opacity:1;stroke-width:0.264583"
       x="100.99943"
       y="137.6404"
       id="text8247"><tspan
         sodipodi:role="line"
         id="tspan2"
         x="100.99943"
         y="137.6404">Full Blue Racing</tspan></text>
  </g>
</svg>
